<?xml version="1.0" encoding="UTF-8" standalone="no"?>
<!DOCTYPE svg PUBLIC "-//W3C//DTD SVG 1.1//EN" "http://www.w3.org/Graphics/SVG/1.1/DTD/svg11.dtd">
<svg version="1.1" xmlns="http://www.w3.org/2000/svg" xmlns:xlink="http://www.w3.org/1999/xlink" preserveAspectRatio="xMidYMid meet" viewBox="0 0 640 640" width="640" height="640"><defs><path d="M201.66 302.13C201.66 302.13 201.66 302.13 201.66 302.13C201.66 302.31 201.66 302.4 201.66 302.42C201.66 302.42 201.66 302.42 201.66 302.42C201.14 302.42 200.85 302.42 200.79 302.42C200.79 302.42 200.79 302.42 200.79 302.42C200.79 302.25 200.79 302.15 200.79 302.13C200.79 302.13 200.79 302.13 200.79 302.13C201.31 302.13 201.6 302.13 201.66 302.13Z" id="b2tu6IUgtc"></path><path d="M145.75 499.68C145.15 502.14 144.26 503.23 144.1 503.62C143.05 505.11 141.27 505.65 140.95 505.88C138.85 506.65 136.09 506.8 135.55 506.9C132.26 507.15 128 507.13 127.16 507.16C121.47 507.16 118.94 506.93 118.02 506.9C114.58 506.64 113.12 505.98 112.58 505.88C110.58 505.11 109.97 503.85 109.68 503.62C109.08 502.64 108.62 501.32 108.28 499.68L87.61 415.74L87.41 415.74C75.66 466.11 69.13 494.09 67.83 499.68C67.33 502.04 66.57 503.14 66.43 503.52C65.53 505.01 63.87 505.6 63.58 505.83C61.64 506.64 58.82 506.79 58.29 506.9C54.94 507.16 50.33 507.13 49.45 507.16C43.66 507.16 41.13 506.93 40.21 506.9C36.76 506.64 35.31 505.98 34.77 505.88C32.77 505.11 32.16 503.85 31.87 503.62C31.27 502.64 30.77 501.32 30.37 499.68C12.75 430.34 2.96 391.82 1.01 384.12C0.11 380.43 0.11 378.91 0.01 378.33C-0.09 376.24 1.04 375.43 1.16 375.11C2.41 373.98 4.84 373.87 5.25 373.73C8.09 373.47 12.4 373.5 13.19 373.47C17.89 373.47 19.89 373.61 20.63 373.62C23.38 373.78 24.36 374.27 24.78 374.34C26.18 374.9 26.49 375.82 26.68 375.98C27.01 376.7 27.27 377.7 27.47 379L50.15 480.44L50.25 480.44C64.4 420 72.26 386.43 73.83 379.71C74.23 377.77 74.77 376.86 74.88 376.54C75.53 375.31 76.86 374.83 77.07 374.64C78.62 373.98 80.9 373.82 81.32 373.72C84.02 373.47 87.79 373.49 88.51 373.47C93.31 373.47 95.39 373.65 96.15 373.67C99 373.88 100.11 374.45 100.55 374.54C102.1 375.2 102.57 376.24 102.8 376.43C103.26 377.25 103.63 378.34 103.89 379.71L128.27 480.43L128.47 480.43C142.07 419.75 149.63 386.04 151.14 379.3C151.31 378.33 151.57 377.39 151.94 376.48C152.44 375.31 153.65 374.83 153.84 374.64C155.24 373.98 157.44 373.81 157.83 373.72C160.43 373.46 164.4 373.49 165.13 373.46C169.52 373.46 171.29 373.69 171.97 373.72C174.42 373.98 175.16 374.96 175.52 375.1C176.61 376.23 176.37 378.1 176.47 378.43C176.37 379.9 176.02 381.89 175.42 384.42C159.59 445.89 149.7 484.32 145.75 499.68Z" id="a20iTQAMeM"></path><path d="M251.09 371.76L252.14 371.79L253.16 371.83L254.16 371.89L255.14 371.95L256.09 372.02L257.02 372.11L257.93 372.2L258.82 372.3L259.68 372.4L260.52 372.52L261.34 372.64L262.13 372.76L262.91 372.89L263.66 373.02L264.39 373.16L265.09 373.29L265.77 373.43L266.43 373.58L267.07 373.72L267.68 373.86L268.27 374L268.84 374.14L269.39 374.28L269.91 374.42L270.41 374.55L270.89 374.68L271.35 374.81L271.78 374.93L272.19 375.04L272.58 375.15L272.94 375.26L273.28 375.35L273.6 375.44L273.9 375.51L274.17 375.58L274.42 375.64L274.65 375.69L274.86 375.72L275.69 376.03L276.5 376.34L277.29 376.67L278.07 377L278.82 377.35L279.55 377.7L280.26 378.05L280.95 378.41L281.62 378.78L282.27 379.15L282.9 379.53L283.52 379.9L284.11 380.28L284.69 380.66L285.25 381.04L285.78 381.42L286.3 381.79L286.81 382.17L287.29 382.53L287.76 382.9L288.21 383.26L288.64 383.61L289.06 383.96L289.45 384.3L289.83 384.63L290.2 384.95L290.55 385.26L290.88 385.56L291.19 385.85L291.49 386.13L291.78 386.39L292.04 386.64L292.3 386.87L292.53 387.09L292.75 387.29L292.96 387.47L293.15 387.63L293.33 387.78L293.49 387.9L293.64 388.01L294.19 388.63L294.73 389.26L295.25 389.9L295.76 390.55L296.25 391.2L296.72 391.85L297.17 392.51L297.61 393.16L298.03 393.82L298.44 394.48L298.83 395.13L299.21 395.79L299.57 396.44L299.92 397.08L300.26 397.72L300.58 398.35L300.88 398.98L301.18 399.59L301.46 400.2L301.73 400.8L301.99 401.38L302.24 401.95L302.47 402.51L302.7 403.05L302.91 403.58L303.11 404.09L303.31 404.59L303.49 405.06L303.66 405.52L303.83 405.95L303.98 406.36L304.13 406.75L304.27 407.12L304.4 407.46L304.52 407.78L304.63 408.07L304.74 408.33L304.84 408.56L304.94 408.77L305.03 408.94L305.22 409.57L305.4 410.21L305.58 410.86L305.76 411.51L305.93 412.17L306.09 412.84L306.25 413.5L306.41 414.18L306.56 414.86L306.71 415.55L306.85 416.24L306.99 416.94L307.12 417.64L307.25 418.35L307.37 419.06L307.49 419.78L307.6 420.51L307.71 421.24L307.81 421.98L307.91 422.72L308 423.47L308.09 424.22L308.17 424.99L308.25 425.75L308.33 426.52L308.4 427.3L308.46 428.08L308.52 428.87L308.58 429.67L308.63 430.47L308.67 431.27L308.71 432.08L308.75 432.9L308.78 433.72L308.81 434.55L308.83 435.38L308.84 436.22L308.86 437.07L308.86 437.92L308.87 438.78L304.87 468.26L304.57 469.22L304.25 470.16L303.93 471.08L303.6 471.98L303.26 472.85L302.92 473.7L302.57 474.53L302.21 475.33L301.86 476.12L301.49 476.88L301.13 477.62L300.77 478.34L300.4 479.04L300.03 479.71L299.67 480.37L299.3 481L298.94 481.62L298.58 482.21L298.23 482.78L297.87 483.34L297.53 483.87L297.19 484.38L296.86 484.87L296.53 485.34L296.21 485.8L295.91 486.23L295.61 486.64L295.32 487.04L295.04 487.41L294.78 487.77L294.53 488.11L294.29 488.42L294.07 488.72L293.86 489.01L293.67 489.27L293.5 489.52L293.34 489.74L293.2 489.95L293.08 490.14L292.98 490.32L292.39 490.99L291.79 491.63L291.18 492.26L290.57 492.87L289.96 493.46L289.34 494.02L288.73 494.57L288.11 495.1L287.49 495.61L286.88 496.1L286.26 496.58L285.65 497.04L285.05 497.48L284.45 497.9L283.85 498.31L283.26 498.7L282.68 499.07L282.11 499.43L281.55 499.78L280.99 500.11L280.45 500.42L279.92 500.72L279.4 501.01L278.9 501.28L278.41 501.55L277.94 501.79L277.48 502.03L277.04 502.25L276.62 502.47L276.22 502.67L275.84 502.86L275.48 503.04L275.14 503.21L274.82 503.37L274.53 503.52L274.26 503.66L274.02 503.79L273.8 503.91L273.62 504.03L273.46 504.14L272.58 504.48L271.7 504.81L270.83 505.12L269.95 505.41L269.07 505.69L268.19 505.95L267.32 506.19L266.44 506.41L265.58 506.62L264.72 506.82L263.86 507L263.02 507.17L262.18 507.33L261.35 507.48L260.53 507.61L259.73 507.73L258.93 507.84L258.15 507.95L257.39 508.04L256.64 508.12L255.91 508.2L255.19 508.27L254.5 508.33L253.82 508.39L253.17 508.44L252.53 508.48L251.92 508.52L251.34 508.56L250.78 508.59L250.24 508.62L249.73 508.65L249.25 508.68L248.8 508.7L248.38 508.73L247.99 508.75L247.63 508.78L247.3 508.8L247.01 508.83L246.76 508.86L246.53 508.9L245.42 508.89L244.32 508.87L243.25 508.84L242.2 508.79L241.18 508.74L240.18 508.67L239.21 508.6L238.26 508.51L237.33 508.42L236.43 508.32L235.55 508.21L234.7 508.1L233.86 507.98L233.06 507.85L232.27 507.72L231.51 507.59L230.78 507.45L230.06 507.31L229.37 507.17L228.71 507.02L228.06 506.88L227.44 506.74L226.85 506.59L226.27 506.45L225.72 506.31L225.19 506.17L224.69 506.03L224.21 505.9L223.75 505.77L223.32 505.65L222.9 505.54L222.51 505.42L222.15 505.32L221.8 505.23L221.48 505.14L221.18 505.06L220.91 504.99L220.65 504.93L220.42 504.88L220.21 504.85L219.38 504.54L218.57 504.22L217.78 503.89L217.01 503.55L216.26 503.21L215.53 502.85L214.82 502.49L214.13 502.13L213.46 501.76L212.81 501.39L212.18 501.01L211.57 500.63L210.97 500.25L210.4 499.87L209.84 499.49L209.31 499.11L208.79 498.74L208.29 498.36L207.8 497.99L207.34 497.63L206.89 497.26L206.46 496.91L206.05 496.56L205.65 496.22L205.27 495.89L204.91 495.57L204.56 495.26L204.23 494.96L203.92 494.67L203.62 494.39L203.34 494.13L203.07 493.88L202.82 493.65L202.59 493.43L202.37 493.23L202.16 493.05L201.97 492.89L201.79 492.74L201.63 492.62L201.48 492.51L200.93 491.89L200.4 491.25L199.88 490.61L199.38 489.97L198.9 489.31L198.43 488.66L197.98 488L197.55 487.34L197.13 486.68L196.73 486.02L196.34 485.36L195.97 484.7L195.61 484.05L195.26 483.4L194.93 482.75L194.62 482.12L194.31 481.49L194.02 480.87L193.74 480.25L193.48 479.65L193.22 479.06L192.98 478.49L192.75 477.92L192.53 477.37L192.32 476.84L192.12 476.32L191.93 475.82L191.75 475.34L191.58 474.88L191.42 474.45L191.27 474.03L191.13 473.63L190.99 473.26L190.86 472.92L190.74 472.6L190.63 472.31L190.53 472.04L190.43 471.81L190.33 471.6L190.25 471.43L189.97 470.46L189.71 469.5L189.47 468.52L189.24 467.55L189.03 466.57L188.82 465.6L188.63 464.62L188.45 463.65L188.29 462.68L188.13 461.72L187.99 460.76L187.86 459.81L187.73 458.87L187.62 457.93L187.51 457.01L187.42 456.1L187.33 455.21L187.25 454.33L187.18 453.46L187.11 452.61L187.05 451.78L186.99 450.97L186.95 450.18L186.9 449.41L186.86 448.67L186.83 447.95L186.8 447.26L186.77 446.59L186.74 445.95L186.72 445.34L186.69 444.76L186.67 444.21L186.65 443.7L186.63 443.22L186.62 442.77L186.6 442.37L186.57 442L186.55 441.66L186.53 441.37L186.5 441.13L186.51 439.93L186.53 438.76L186.56 437.61L186.6 436.49L186.66 435.39L186.72 434.31L186.79 433.26L186.88 432.22L186.97 431.22L187.07 430.23L187.17 429.27L187.29 428.34L187.41 427.43L187.53 426.54L187.66 425.68L187.79 424.84L187.93 424.02L188.07 423.23L188.21 422.47L188.35 421.72L188.49 421.01L188.63 420.32L188.78 419.65L188.92 419.01L189.06 418.39L189.19 417.8L189.33 417.23L189.46 416.69L189.58 416.18L189.7 415.69L189.82 415.22L189.93 414.78L190.03 414.37L190.12 413.98L190.21 413.62L190.29 413.29L190.35 412.98L190.41 412.69L190.46 412.44L190.5 412.21L190.8 411.26L191.11 410.33L191.44 409.42L191.77 408.53L192.11 407.67L192.45 406.83L192.8 406.01L193.15 405.21L193.51 404.44L193.87 403.68L194.24 402.95L194.6 402.24L194.97 401.54L195.34 400.87L195.7 400.23L196.07 399.6L196.43 398.99L196.79 398.4L197.14 397.83L197.49 397.29L197.84 396.76L198.18 396.25L198.51 395.76L198.84 395.29L199.16 394.85L199.46 394.42L199.76 394.01L200.05 393.61L200.33 393.24L200.59 392.89L200.84 392.55L201.08 392.24L201.3 391.94L201.51 391.66L201.7 391.4L201.87 391.16L202.03 390.93L202.17 390.72L202.29 390.53L202.39 390.36L202.98 389.69L203.58 389.05L204.19 388.43L204.8 387.82L205.41 387.24L206.03 386.67L206.64 386.12L207.26 385.6L207.88 385.09L208.49 384.59L209.11 384.12L209.72 383.66L210.32 383.22L210.92 382.8L211.52 382.39L212.11 382L212.69 381.63L213.26 381.27L213.83 380.92L214.38 380.59L214.92 380.27L215.45 379.97L215.97 379.68L216.47 379.41L216.96 379.15L217.43 378.9L217.89 378.66L218.33 378.43L218.75 378.22L219.15 378.02L219.53 377.82L219.89 377.64L220.23 377.47L220.55 377.31L220.84 377.16L221.11 377.02L221.35 376.89L221.57 376.76L221.76 376.65L221.92 376.54L222.79 376.19L223.67 375.86L224.55 375.55L225.43 375.25L226.31 374.97L227.19 374.71L228.06 374.47L228.94 374.24L229.8 374.03L230.67 373.83L231.53 373.64L232.37 373.47L233.22 373.31L234.05 373.17L234.87 373.03L235.68 372.91L236.47 372.79L237.26 372.69L238.02 372.6L238.78 372.51L239.51 372.43L240.23 372.36L240.93 372.3L241.61 372.25L242.27 372.2L242.9 372.15L243.52 372.11L244.11 372.07L244.67 372.04L245.21 372.01L245.72 371.98L246.21 371.95L246.66 371.93L247.08 371.9L247.48 371.88L247.84 371.85L248.16 371.82L248.46 371.8L248.71 371.76L248.94 371.73L250.03 371.74L251.09 371.76ZM246.62 393.87L245.93 393.9L245.27 393.94L244.62 393.99L243.99 394.05L243.38 394.12L242.79 394.2L242.21 394.28L241.64 394.37L241.1 394.47L240.57 394.58L240.06 394.69L239.56 394.81L239.08 394.93L238.62 395.05L238.17 395.18L237.74 395.31L237.32 395.44L236.92 395.57L236.53 395.7L236.16 395.84L235.8 395.97L235.46 396.1L235.13 396.23L234.81 396.36L234.51 396.49L234.23 396.61L233.96 396.73L233.7 396.84L233.46 396.95L233.23 397.05L233.01 397.14L232.8 397.23L232.61 397.31L232.44 397.38L232.27 397.45L232.12 397.5L231.98 397.55L231.85 397.58L231.37 397.86L230.9 398.15L230.45 398.44L230.01 398.74L229.58 399.04L229.16 399.34L228.76 399.65L228.37 399.96L227.99 400.27L227.62 400.58L227.27 400.88L226.92 401.19L226.59 401.5L226.27 401.81L225.96 402.12L225.66 402.42L225.37 402.72L225.09 403.02L224.82 403.31L224.57 403.6L224.32 403.88L224.08 404.16L223.86 404.43L223.64 404.69L223.43 404.95L223.23 405.2L223.04 405.44L222.86 405.67L222.69 405.89L222.53 406.1L222.38 406.31L222.23 406.5L222.1 406.68L221.97 406.84L221.85 407L221.74 407.14L221.63 407.27L221.54 407.38L221.45 407.48L221.36 407.56L221.07 408.03L220.79 408.5L220.51 408.97L220.25 409.45L220 409.92L219.75 410.39L219.52 410.86L219.3 411.33L219.08 411.8L218.88 412.27L218.68 412.73L218.49 413.19L218.31 413.64L218.14 414.09L217.97 414.53L217.81 414.97L217.66 415.4L217.52 415.83L217.38 416.24L217.26 416.65L217.13 417.05L217.02 417.43L216.9 417.81L216.8 418.18L216.7 418.54L216.61 418.88L216.52 419.21L216.43 419.53L216.35 419.84L216.28 420.13L216.21 420.41L216.14 420.67L216.08 420.91L216.02 421.14L215.96 421.36L215.91 421.55L215.86 421.73L215.81 421.89L215.76 422.03L215.72 422.15L215.6 422.77L215.49 423.39L215.38 424.01L215.28 424.62L215.18 425.23L215.09 425.83L215.01 426.43L214.93 427.02L214.86 427.6L214.79 428.18L214.73 428.75L214.67 429.31L214.61 429.86L214.56 430.4L214.52 430.93L214.48 431.46L214.44 431.97L214.4 432.47L214.37 432.96L214.34 433.44L214.31 433.91L214.29 434.36L214.27 434.8L214.25 435.23L214.23 435.64L214.22 436.04L214.2 436.42L214.19 436.79L214.18 437.14L214.17 437.47L214.16 437.79L214.15 438.09L214.14 438.37L214.13 438.64L214.12 438.88L214.11 439.11L214.1 439.31L214.09 439.5L214.08 439.66L214.07 439.8L214.07 440.61L214.08 441.4L214.1 442.18L214.11 442.93L214.13 443.68L214.16 444.41L214.19 445.12L214.22 445.81L214.26 446.49L214.3 447.16L214.34 447.8L214.39 448.43L214.43 449.05L214.48 449.65L214.54 450.23L214.59 450.79L214.64 451.34L214.7 451.88L214.75 452.39L214.81 452.89L214.87 453.38L214.93 453.84L214.98 454.29L215.04 454.72L215.09 455.14L215.15 455.54L215.2 455.92L215.25 456.28L215.3 456.63L215.35 456.96L215.4 457.27L215.44 457.57L215.48 457.85L215.52 458.11L215.56 458.35L215.59 458.58L215.61 458.79L215.64 458.98L215.66 459.15L215.67 459.31L215.79 459.95L215.92 460.57L216.06 461.18L216.19 461.78L216.34 462.36L216.49 462.93L216.64 463.48L216.79 464.02L216.95 464.55L217.11 465.06L217.27 465.55L217.44 466.04L217.6 466.5L217.77 466.96L217.94 467.4L218.1 467.82L218.27 468.24L218.44 468.63L218.6 469.02L218.77 469.39L218.93 469.75L219.09 470.09L219.24 470.42L219.39 470.74L219.54 471.05L219.69 471.34L219.83 471.62L219.97 471.88L220.1 472.14L220.22 472.38L220.34 472.61L220.45 472.82L220.56 473.02L220.66 473.21L220.75 473.39L220.83 473.56L220.9 473.71L220.97 473.85L221.02 473.98L221.07 474.1L221.35 474.55L221.65 474.99L221.95 475.41L222.25 475.83L222.55 476.22L222.86 476.61L223.17 476.98L223.49 477.34L223.8 477.69L224.12 478.02L224.43 478.34L224.75 478.65L225.06 478.95L225.38 479.24L225.69 479.51L226 479.78L226.31 480.03L226.61 480.27L226.91 480.51L227.2 480.73L227.49 480.95L227.77 481.15L228.05 481.34L228.32 481.53L228.58 481.71L228.84 481.88L229.09 482.04L229.32 482.19L229.55 482.33L229.77 482.47L229.97 482.6L230.17 482.72L230.35 482.83L230.52 482.94L230.68 483.04L230.82 483.14L230.95 483.23L231.07 483.31L231.17 483.39L231.26 483.46L231.74 483.7L232.23 483.92L232.72 484.13L233.22 484.33L233.72 484.51L234.22 484.69L234.72 484.85L235.23 485.01L235.73 485.15L236.24 485.28L236.74 485.4L237.24 485.52L237.74 485.63L238.24 485.72L238.73 485.81L239.21 485.9L239.69 485.97L240.17 486.04L240.63 486.1L241.09 486.16L241.54 486.21L241.98 486.26L242.4 486.3L242.82 486.34L243.23 486.37L243.62 486.4L244 486.43L244.36 486.46L244.71 486.48L245.04 486.5L245.36 486.52L245.66 486.53L245.94 486.55L246.2 486.57L246.44 486.58L246.67 486.6L246.87 486.62L247.05 486.64L247.2 486.66L247.33 486.68L248.05 486.68L248.75 486.66L249.43 486.63L250.1 486.59L250.74 486.54L251.37 486.48L251.99 486.41L252.58 486.34L253.16 486.25L253.72 486.16L254.27 486.06L254.8 485.96L255.31 485.85L255.8 485.73L256.28 485.61L256.75 485.49L257.2 485.37L257.63 485.24L258.05 485.11L258.45 484.98L258.84 484.85L259.21 484.72L259.57 484.58L259.91 484.45L260.24 484.33L260.55 484.2L260.85 484.08L261.14 483.96L261.41 483.84L261.67 483.73L261.91 483.62L262.14 483.52L262.36 483.43L262.56 483.34L262.75 483.26L262.93 483.19L263.1 483.13L263.25 483.07L263.39 483.03L263.52 483L263.84 482.82L264.15 482.63L264.47 482.44L264.78 482.24L265.09 482.05L265.4 481.84L265.7 481.64L266 481.43L266.3 481.22L266.59 481L266.89 480.78L267.18 480.56L267.46 480.33L267.75 480.1L268.03 479.86L268.31 479.63L268.58 479.39L268.86 479.14L269.12 478.89L269.39 478.64L269.65 478.39L269.91 478.13L270.17 477.87L270.42 477.6L270.67 477.34L270.92 477.07L271.16 476.79L271.4 476.52L271.64 476.24L271.87 475.95L272.1 475.67L272.33 475.38L272.55 475.09L272.77 474.79L272.98 474.5L273.19 474.2L273.4 473.89L273.61 473.59L273.81 473.28L274 472.97L274.3 472.49L274.58 472.01L274.85 471.53L275.12 471.05L275.37 470.57L275.61 470.09L275.85 469.61L276.07 469.13L276.29 468.66L276.49 468.19L276.69 467.72L276.88 467.25L277.06 466.79L277.23 466.34L277.4 465.89L277.55 465.44L277.7 465.01L277.85 464.58L277.98 464.16L278.11 463.75L278.23 463.34L278.35 462.95L278.46 462.57L278.57 462.19L278.67 461.83L278.76 461.48L278.85 461.15L278.93 460.82L279.01 460.51L279.09 460.22L279.16 459.94L279.23 459.67L279.29 459.42L279.35 459.19L279.41 458.98L279.46 458.78L279.51 458.6L279.56 458.44L279.6 458.3L279.65 458.18L279.73 457.75L279.81 457.33L279.88 456.9L279.96 456.48L280.03 456.05L280.1 455.62L280.17 455.19L280.24 454.76L280.31 454.32L280.37 453.89L280.43 453.45L280.49 453.01L280.54 452.57L280.6 452.13L280.65 451.69L280.7 451.25L280.75 450.8L280.8 450.36L280.84 449.91L280.88 449.46L280.92 449.01L280.96 448.56L281 448.11L281.03 447.66L281.06 447.2L281.09 446.74L281.12 446.29L281.15 445.83L281.17 445.37L281.19 444.9L281.21 444.44L281.23 443.98L281.25 443.51L281.26 443.04L281.27 442.57L281.28 442.1L281.29 441.63L281.29 441.16L281.3 440.69L281.3 440.21L281.02 436.95L280.83 434.7L280.71 433.29L280.55 431.33L280.4 429.53L280.26 427.91L280.1 426.01L280.03 425.17L279.91 423.73L279.83 422.85L279.76 421.94L279.72 421.45L279.7 421.23L279.58 420.59L279.45 419.97L279.31 419.37L279.17 418.78L279.03 418.2L278.88 417.64L278.73 417.1L278.57 416.56L278.41 416.04L278.25 415.54L278.09 415.05L277.92 414.57L277.75 414.11L277.59 413.66L277.42 413.23L277.25 412.8L277.08 412.4L276.91 412L276.75 411.62L276.58 411.25L276.42 410.9L276.26 410.56L276.1 410.23L275.95 409.91L275.79 409.61L275.65 409.32L275.51 409.04L275.37 408.78L275.24 408.53L275.11 408.29L274.99 408.06L274.88 407.85L274.77 407.65L274.67 407.46L274.58 407.29L274.5 407.12L274.42 406.97L274.36 406.83L274.3 406.7L274.25 406.59L274.06 406.29L273.87 405.99L273.67 405.7L273.47 405.41L273.27 405.12L273.06 404.84L272.85 404.56L272.63 404.28L272.41 404L272.19 403.73L271.96 403.46L271.73 403.2L271.5 402.93L271.26 402.67L271.02 402.42L270.78 402.16L270.53 401.92L270.28 401.67L270.03 401.43L269.77 401.19L269.51 400.95L269.25 400.72L268.98 400.49L268.71 400.26L268.44 400.04L268.17 399.83L267.89 399.61L267.61 399.4L267.32 399.19L267.03 398.99L266.75 398.79L266.45 398.59L266.16 398.4L265.86 398.21L265.56 398.03L265.25 397.85L264.95 397.67L264.64 397.5L264.33 397.33L264.02 397.17L263.53 396.93L263.05 396.7L262.55 396.48L262.06 396.28L261.56 396.09L261.06 395.91L260.56 395.74L260.05 395.58L259.55 395.43L259.05 395.29L258.54 395.17L258.05 395.05L257.55 394.94L257.06 394.84L256.57 394.74L256.09 394.66L255.61 394.58L255.14 394.51L254.68 394.44L254.23 394.38L253.78 394.33L253.35 394.28L252.92 394.24L252.51 394.2L252.11 394.17L251.72 394.13L251.34 394.11L250.98 394.08L250.64 394.06L250.31 394.04L249.99 394.02L249.7 394L249.42 393.98L249.16 393.96L248.92 393.95L248.7 393.93L248.5 393.91L248.32 393.89L248.17 393.87L248.03 393.84L247.32 393.85L246.62 393.87Z" id="afwgG7V1"></path><path d="M372.94 374.09L373.3 374.09L373.64 374.09L373.98 374.09L374.31 374.1L374.63 374.1L374.94 374.1L375.24 374.11L375.54 374.11L375.82 374.12L376.09 374.12L376.36 374.13L376.62 374.14L376.87 374.14L377.11 374.15L377.34 374.16L377.56 374.16L377.78 374.17L377.99 374.18L378.18 374.19L378.38 374.19L378.56 374.2L378.74 374.21L378.9 374.22L379.07 374.22L379.22 374.23L379.37 374.24L379.5 374.24L379.64 374.25L379.76 374.25L379.88 374.26L379.99 374.26L380.09 374.27L380.19 374.27L380.28 374.28L380.37 374.28L380.45 374.28L380.52 374.29L380.59 374.29L380.83 374.3L381.07 374.32L381.31 374.34L381.54 374.35L381.76 374.37L381.99 374.38L382.2 374.4L382.42 374.42L382.62 374.43L382.83 374.45L383.03 374.46L383.22 374.48L383.41 374.5L383.59 374.51L383.77 374.53L383.95 374.54L384.12 374.56L384.28 374.57L384.44 374.59L384.59 374.6L384.74 374.62L384.89 374.63L385.03 374.64L385.16 374.66L385.29 374.67L385.41 374.68L385.53 374.69L385.64 374.71L385.75 374.72L385.85 374.73L385.95 374.74L386.04 374.75L386.13 374.76L386.21 374.76L386.28 374.77L386.35 374.78L386.42 374.79L386.48 374.79L386.53 374.8L386.58 374.8L387.16 374.89L387.73 374.98L388.28 375.07L388.83 375.17L389.36 375.27L389.88 375.38L390.4 375.49L390.9 375.6L391.38 375.71L391.86 375.83L392.33 375.95L392.78 376.06L393.22 376.18L393.65 376.3L394.07 376.42L394.48 376.54L394.88 376.66L395.26 376.78L395.63 376.9L395.99 377.02L396.34 377.14L396.68 377.25L397 377.37L397.31 377.48L397.61 377.59L397.9 377.69L398.17 377.79L398.44 377.89L398.69 377.99L398.92 378.08L399.15 378.16L399.36 378.24L399.56 378.32L399.75 378.39L399.93 378.46L400.09 378.52L400.24 378.57L400.38 378.62L400.5 378.66L400.61 378.69L401.08 378.9L401.53 379.11L401.97 379.33L402.4 379.54L402.82 379.76L403.23 379.99L403.62 380.21L404.01 380.43L404.39 380.66L404.75 380.88L405.11 381.11L405.45 381.33L405.79 381.55L406.11 381.78L406.43 382L406.73 382.22L407.03 382.43L407.31 382.65L407.59 382.86L407.85 383.06L408.11 383.27L408.35 383.47L408.59 383.66L408.81 383.85L409.03 384.03L409.24 384.21L409.44 384.39L409.63 384.55L409.81 384.71L409.98 384.86L410.14 385.01L410.29 385.14L410.44 385.27L410.57 385.39L410.7 385.5L410.82 385.6L410.93 385.69L411.03 385.78L411.12 385.85L411.2 385.91L411.52 386.24L411.83 386.58L412.13 386.92L412.43 387.25L412.71 387.59L412.98 387.93L413.24 388.27L413.5 388.61L413.74 388.95L413.98 389.28L414.21 389.62L414.43 389.95L414.64 390.28L414.84 390.6L415.04 390.92L415.23 391.24L415.41 391.55L415.58 391.86L415.74 392.16L415.9 392.45L416.05 392.74L416.2 393.02L416.34 393.3L416.47 393.57L416.6 393.82L416.72 394.07L416.83 394.32L416.94 394.55L417.04 394.77L417.14 394.98L417.23 395.18L417.32 395.38L417.4 395.55L417.47 395.72L417.55 395.88L417.61 396.02L417.68 396.15L417.74 396.26L417.79 396.36L417.84 396.45L418.01 396.91L418.17 397.37L418.32 397.82L418.46 398.28L418.59 398.74L418.72 399.2L418.83 399.65L418.94 400.11L419.05 400.56L419.14 401.01L419.23 401.45L419.31 401.89L419.39 402.32L419.46 402.75L419.52 403.18L419.58 403.6L419.63 404.01L419.68 404.41L419.73 404.81L419.77 405.2L419.81 405.58L419.84 405.95L419.87 406.31L419.9 406.65L419.92 406.99L419.94 407.32L419.96 407.64L419.98 407.94L419.99 408.23L420.01 408.51L420.02 408.77L420.04 409.02L420.05 409.25L420.06 409.47L420.07 409.67L420.08 409.86L420.1 410.03L420.11 410.18L420.13 410.31L420.14 410.42L420.14 410.92L420.13 411.4L420.12 411.88L420.1 412.35L420.08 412.8L420.05 413.25L420.02 413.69L419.99 414.12L419.95 414.54L419.91 414.95L419.86 415.35L419.82 415.75L419.77 416.13L419.72 416.5L419.66 416.86L419.61 417.22L419.55 417.56L419.5 417.89L419.44 418.21L419.38 418.53L419.32 418.83L419.26 419.12L419.2 419.4L419.15 419.67L419.09 419.94L419.03 420.19L418.98 420.43L418.92 420.66L418.87 420.87L418.82 421.08L418.77 421.28L418.73 421.46L418.69 421.64L418.65 421.8L418.61 421.96L418.58 422.1L418.55 422.23L418.53 422.35L418.51 422.46L418.49 422.55L418.37 422.96L418.24 423.36L418.11 423.75L417.97 424.13L417.83 424.51L417.69 424.87L417.55 425.23L417.4 425.58L417.26 425.92L417.11 426.26L416.96 426.58L416.81 426.9L416.66 427.21L416.51 427.51L416.36 427.8L416.22 428.08L416.07 428.36L415.92 428.62L415.78 428.88L415.64 429.13L415.5 429.37L415.36 429.6L415.22 429.83L415.09 430.04L414.96 430.25L414.84 430.45L414.72 430.64L414.6 430.82L414.49 431L414.38 431.16L414.28 431.32L414.18 431.46L414.09 431.6L414.01 431.73L413.93 431.85L413.86 431.97L413.8 432.07L413.74 432.17L413.69 432.25L413.65 432.33L413.41 432.65L413.17 432.96L412.92 433.27L412.67 433.56L412.43 433.85L412.18 434.14L411.93 434.42L411.68 434.69L411.43 434.95L411.18 435.21L410.93 435.46L410.69 435.7L410.44 435.94L410.2 436.16L409.96 436.39L409.72 436.6L409.48 436.81L409.25 437.01L409.03 437.21L408.8 437.4L408.58 437.58L408.37 437.76L408.16 437.93L407.96 438.09L407.76 438.24L407.57 438.39L407.38 438.54L407.21 438.67L407.04 438.8L406.88 438.92L406.72 439.04L406.58 439.15L406.44 439.26L406.31 439.35L406.19 439.44L406.09 439.53L405.99 439.61L405.9 439.68L405.82 439.74L405.76 439.8L405.41 440.04L405.05 440.27L404.7 440.49L404.35 440.7L404 440.91L403.65 441.12L403.3 441.31L402.95 441.5L402.6 441.69L402.26 441.87L401.92 442.04L401.58 442.21L401.25 442.37L400.92 442.53L400.6 442.68L400.28 442.83L399.96 442.97L399.65 443.1L399.35 443.23L399.06 443.36L398.77 443.48L398.48 443.6L398.21 443.71L397.94 443.81L397.68 443.91L397.44 444.01L397.19 444.1L396.96 444.19L396.74 444.27L396.53 444.35L396.33 444.43L396.14 444.5L395.96 444.56L395.8 444.63L395.64 444.68L395.5 444.74L395.37 444.79L395.26 444.84L395.16 444.88L395.07 444.92L395.22 444.99L395.36 445.07L395.5 445.14L395.65 445.21L395.79 445.29L395.93 445.37L396.08 445.44L396.22 445.52L396.36 445.6L396.5 445.68L396.64 445.76L396.78 445.84L396.92 445.92L397.06 446L397.2 446.09L397.34 446.17L397.48 446.25L397.61 446.34L397.75 446.43L397.89 446.51L398.02 446.6L398.16 446.69L398.29 446.78L398.43 446.87L398.56 446.96L398.7 447.05L398.83 447.14L398.96 447.23L399.09 447.33L399.23 447.42L399.36 447.52L399.49 447.61L399.62 447.71L399.75 447.8L399.88 447.9L400.01 448L400.13 448.1L400.26 448.2L400.39 448.3L400.51 448.4L400.7 448.56L400.89 448.71L401.07 448.87L401.25 449.02L401.43 449.18L401.61 449.34L401.78 449.5L401.95 449.66L402.11 449.81L402.27 449.97L402.43 450.13L402.58 450.28L402.73 450.44L402.88 450.59L403.02 450.74L403.16 450.89L403.3 451.04L403.43 451.18L403.56 451.33L403.69 451.47L403.81 451.6L403.93 451.74L404.04 451.87L404.15 451.99L404.25 452.12L404.35 452.24L404.45 452.35L404.54 452.46L404.63 452.57L404.72 452.67L404.8 452.76L404.87 452.86L404.94 452.94L405.01 453.02L405.07 453.09L405.13 453.16L405.18 453.22L405.23 453.28L405.27 453.33L405.31 453.37L405.43 453.52L405.55 453.68L405.67 453.84L405.78 454L405.9 454.16L406.02 454.32L406.13 454.48L406.25 454.64L406.36 454.8L406.47 454.96L406.59 455.12L406.7 455.29L406.81 455.45L406.92 455.61L407.03 455.78L407.14 455.94L407.25 456.11L407.36 456.27L407.46 456.44L407.57 456.6L407.67 456.77L407.78 456.94L407.88 457.1L407.99 457.27L408.09 457.44L408.19 457.61L408.3 457.78L408.4 457.95L408.5 458.12L408.6 458.29L408.7 458.46L408.79 458.63L408.89 458.8L408.99 458.97L409.08 459.15L409.18 459.32L409.27 459.49L409.37 459.67L409.46 459.84L409.55 460.02L409.66 460.22L409.77 460.43L409.88 460.63L409.98 460.84L410.09 461.05L410.2 461.26L410.3 461.46L410.41 461.67L410.51 461.88L410.61 462.09L410.72 462.3L410.82 462.5L410.92 462.71L411.02 462.92L411.12 463.13L411.22 463.34L411.32 463.55L411.42 463.76L411.52 463.97L411.62 464.19L411.71 464.4L411.81 464.61L411.91 464.82L412 465.03L412.1 465.25L412.19 465.46L412.28 465.67L412.38 465.88L412.47 466.1L412.56 466.31L412.65 466.52L412.74 466.74L412.83 466.95L412.92 467.17L413.01 467.38L413.1 467.6L413.19 467.81L413.28 468.03L413.36 468.24L413.45 468.46L424.34 494.56L424.45 494.85L424.56 495.13L424.66 495.39L424.75 495.65L424.85 495.9L424.94 496.14L425.02 496.37L425.1 496.59L425.18 496.81L425.26 497.01L425.33 497.21L425.39 497.4L425.46 497.58L425.52 497.76L425.58 497.92L425.63 498.08L425.68 498.23L425.73 498.38L425.78 498.52L425.83 498.65L425.87 498.78L425.91 498.9L425.94 499.01L425.98 499.12L426.01 499.23L426.04 499.32L426.07 499.42L426.1 499.51L426.13 499.59L426.15 499.67L426.17 499.74L426.2 499.81L426.22 499.88L426.24 499.94L426.26 500L426.27 500.06L426.29 500.11L426.31 500.16L426.32 500.21L426.34 500.25L426.36 500.34L426.39 500.43L426.41 500.51L426.43 500.6L426.45 500.69L426.48 500.77L426.5 500.85L426.52 500.94L426.54 501.02L426.56 501.1L426.57 501.18L426.59 501.26L426.61 501.34L426.63 501.41L426.64 501.49L426.66 501.56L426.67 501.64L426.69 501.71L426.7 501.78L426.71 501.85L426.72 501.92L426.74 501.99L426.75 502.06L426.76 502.13L426.77 502.19L426.78 502.26L426.78 502.32L426.79 502.38L426.8 502.45L426.81 502.51L426.81 502.57L426.82 502.63L426.82 502.69L426.83 502.74L426.83 502.8L426.83 502.85L426.83 502.91L426.84 502.96L426.84 503.02L426.84 503.07L426.44 504.96L426.4 505.02L426.37 505.07L426.33 505.13L426.29 505.18L426.25 505.23L426.2 505.28L426.15 505.33L426.1 505.38L426.05 505.42L426 505.47L425.94 505.51L425.89 505.55L425.83 505.59L425.77 505.63L425.71 505.67L425.65 505.71L425.59 505.74L425.53 505.78L425.47 505.81L425.41 505.84L425.35 505.87L425.29 505.9L425.23 505.93L425.17 505.96L425.12 505.98L425.06 506.01L425.01 506.03L424.96 506.05L424.91 506.07L424.86 506.09L424.77 506.13L424.73 506.15L424.69 506.16L424.66 506.18L424.63 506.19L424.6 506.21L424.58 506.22L424.56 506.23L424.54 506.24L424.42 506.28L424.31 506.31L424.19 506.35L424.06 506.38L423.94 506.41L423.81 506.45L423.68 506.48L423.55 506.5L423.42 506.53L423.28 506.56L423.15 506.58L423.01 506.61L422.88 506.63L422.74 506.65L422.61 506.67L422.47 506.69L422.34 506.71L422.2 506.73L422.07 506.75L421.94 506.76L421.82 506.78L421.69 506.79L421.57 506.81L421.45 506.82L421.33 506.83L421.22 506.85L421.11 506.86L421 506.87L420.9 506.88L420.81 506.89L420.71 506.9L420.63 506.9L420.54 506.91L420.47 506.92L420.4 506.93L420.33 506.93L420.28 506.94L420.22 506.95L420.18 506.95L420.14 506.96L419.92 506.97L419.7 506.99L419.47 507L419.24 507.01L419.01 507.02L418.77 507.04L418.53 507.05L418.29 507.06L418.04 507.06L417.8 507.07L417.56 507.08L417.31 507.09L417.07 507.09L416.82 507.1L416.58 507.11L416.34 507.11L416.1 507.12L415.87 507.12L415.64 507.13L415.41 507.13L415.18 507.13L414.96 507.13L414.75 507.14L414.54 507.14L414.33 507.14L414.13 507.14L413.94 507.15L413.76 507.15L413.58 507.15L413.41 507.15L413.25 507.15L413.1 507.15L412.96 507.15L412.82 507.15L412.7 507.16L412.59 507.16L412.49 507.16L412.4 507.16L412.32 507.16L412.25 507.16L411.94 507.16L411.64 507.16L411.35 507.16L411.06 507.16L410.79 507.15L410.52 507.15L410.26 507.15L410.01 507.14L409.77 507.14L409.53 507.13L409.3 507.13L409.08 507.12L408.87 507.12L408.67 507.11L408.47 507.1L408.28 507.1L408.09 507.09L407.92 507.08L407.75 507.07L407.58 507.07L407.43 507.06L407.28 507.05L407.13 507.05L407 507.04L406.87 507.03L406.74 507.02L406.62 507.02L406.51 507.01L406.4 507L406.3 507L406.2 506.99L406.11 506.99L406.02 506.98L405.94 506.98L405.87 506.97L405.8 506.97L405.73 506.96L405.67 506.96L405.61 506.96L405.56 506.96L405.38 506.94L405.2 506.92L405.02 506.91L404.85 506.89L404.69 506.87L404.53 506.85L404.38 506.83L404.23 506.81L404.08 506.78L403.94 506.76L403.81 506.74L403.68 506.72L403.56 506.69L403.43 506.67L403.32 506.64L403.21 506.62L403.1 506.6L402.99 506.57L402.89 506.55L402.8 506.52L402.71 506.5L402.62 506.48L402.53 506.45L402.45 506.43L402.38 506.41L402.3 506.39L402.23 506.37L402.17 506.35L402.11 506.33L402.05 506.31L401.99 506.29L401.94 506.28L401.89 506.26L401.84 506.25L401.79 506.23L401.75 506.22L401.71 506.21L401.68 506.2L401.65 506.19L401.61 506.19L401.51 506.14L401.41 506.1L401.31 506.06L401.21 506.01L401.12 505.97L401.03 505.92L400.95 505.88L400.87 505.83L400.79 505.79L400.71 505.75L400.64 505.7L400.57 505.66L400.51 505.61L400.44 505.57L400.39 505.52L400.33 505.48L400.27 505.44L400.22 505.39L400.17 505.35L400.13 505.31L400.08 505.27L400.04 505.23L400 505.19L399.96 505.16L399.92 505.12L399.89 505.09L399.86 505.05L399.83 505.02L399.8 504.99L399.77 504.96L399.74 504.93L399.72 504.9L399.7 504.88L399.67 504.85L399.65 504.83L399.63 504.81L399.62 504.79L399.6 504.78L399.58 504.77L399.57 504.75L399.53 504.7L399.5 504.66L399.47 504.61L399.44 504.56L399.41 504.51L399.38 504.46L399.35 504.41L399.32 504.36L399.29 504.31L399.26 504.26L399.23 504.21L399.2 504.15L399.18 504.1L399.15 504.05L399.12 504L399.09 503.95L399.07 503.9L399.04 503.85L399.02 503.79L398.99 503.74L398.97 503.69L398.94 503.63L398.92 503.58L398.89 503.53L398.87 503.48L398.85 503.42L398.83 503.37L398.8 503.31L398.78 503.26L398.76 503.21L398.74 503.15L398.72 503.1L398.7 503.04L398.68 502.99L398.66 502.93L398.64 502.88L398.62 502.82L398.6 502.77L398.58 502.71L398.57 502.66L386.98 473.07L386.82 472.7L386.67 472.33L386.52 471.98L386.37 471.63L386.22 471.28L386.07 470.95L385.93 470.62L385.79 470.3L385.65 469.99L385.51 469.69L385.38 469.39L385.25 469.1L385.12 468.82L384.99 468.55L384.87 468.28L384.75 468.03L384.63 467.78L384.52 467.53L384.41 467.3L384.3 467.07L384.19 466.85L384.09 466.64L383.99 466.44L383.9 466.24L383.81 466.05L383.72 465.87L383.63 465.7L383.55 465.53L383.48 465.38L383.4 465.23L383.33 465.08L383.27 464.95L383.2 464.82L383.15 464.71L383.09 464.6L383.04 464.49L383 464.4L382.95 464.31L382.92 464.23L382.88 464.16L382.73 463.88L382.58 463.59L382.43 463.32L382.29 463.05L382.14 462.79L381.99 462.54L381.84 462.29L381.7 462.05L381.55 461.82L381.41 461.6L381.27 461.38L381.13 461.16L380.99 460.96L380.85 460.76L380.72 460.57L380.58 460.38L380.45 460.2L380.33 460.03L380.2 459.86L380.08 459.7L379.96 459.54L379.84 459.39L379.73 459.25L379.62 459.11L379.51 458.98L379.41 458.85L379.31 458.73L379.22 458.62L379.13 458.51L379.04 458.41L378.96 458.31L378.88 458.22L378.81 458.13L378.74 458.05L378.68 457.97L378.62 457.9L378.56 457.83L378.52 457.77L378.48 457.71L378.44 457.66L378.32 457.54L378.2 457.41L378.08 457.29L377.96 457.16L377.83 457.04L377.71 456.92L377.58 456.8L377.45 456.69L377.32 456.57L377.19 456.46L377.06 456.34L376.93 456.23L376.8 456.12L376.66 456.01L376.52 455.9L376.39 455.8L376.25 455.69L376.11 455.59L375.97 455.49L375.83 455.39L375.69 455.29L375.54 455.19L375.4 455.1L375.25 455.01L375.11 454.91L374.96 454.82L374.81 454.73L374.66 454.65L374.51 454.56L374.36 454.48L374.21 454.39L374.05 454.31L373.9 454.23L373.74 454.16L373.59 454.08L373.43 454L373.27 453.93L373.12 453.86L372.96 453.79L372.8 453.72L372.64 453.66L372.47 453.59L372.31 453.53L372.15 453.47L371.98 453.41L371.81 453.35L371.65 453.3L371.48 453.24L371.31 453.19L371.13 453.14L370.96 453.09L370.79 453.04L370.61 453L370.44 452.95L370.26 452.91L370.08 452.87L369.9 452.83L369.72 452.79L369.53 452.76L369.35 452.72L369.16 452.69L368.98 452.66L368.79 452.63L368.6 452.6L368.41 452.58L368.22 452.55L368.03 452.53L367.83 452.51L367.64 452.49L367.44 452.48L367.24 452.46L367.04 452.45L366.84 452.43L366.64 452.42L366.44 452.41L366.23 452.41L366.03 452.4L365.82 452.4L365.61 452.39L365.4 452.39L357.21 452.39L357.21 502.86L357.21 502.91L357.21 502.96L357.21 503.01L357.21 503.06L357.2 503.11L357.2 503.16L357.19 503.21L357.19 503.26L357.18 503.31L357.17 503.35L357.16 503.4L357.15 503.45L357.14 503.5L357.13 503.55L357.12 503.6L357.11 503.65L357.09 503.69L357.08 503.74L357.06 503.79L357.05 503.83L357.03 503.88L357.01 503.93L356.99 503.97L356.98 504.02L356.96 504.06L356.93 504.11L356.91 504.15L356.89 504.2L356.87 504.24L356.84 504.29L356.82 504.33L356.79 504.37L356.77 504.41L356.74 504.46L356.71 504.5L356.68 504.54L356.65 504.58L356.62 504.62L356.59 504.66L356.56 504.7L356.51 504.76L356.46 504.82L356.41 504.88L356.35 504.93L356.29 504.99L356.23 505.04L356.17 505.09L356.11 505.14L356.05 505.19L355.98 505.23L355.92 505.28L355.85 505.32L355.79 505.36L355.72 505.41L355.65 505.45L355.59 505.48L355.52 505.52L355.46 505.56L355.39 505.59L355.33 505.62L355.26 505.65L355.2 505.68L355.14 505.71L355.08 505.74L355.02 505.77L354.96 505.79L354.91 505.82L354.85 505.84L354.8 505.86L354.75 505.88L354.66 505.92L354.62 505.94L354.58 505.95L354.54 505.97L354.51 505.98L354.48 506L354.46 506.01L354.43 506.02L354.42 506.03L354.3 506.07L354.19 506.1L354.07 506.14L353.95 506.18L353.83 506.21L353.71 506.24L353.59 506.27L353.46 506.3L353.34 506.33L353.22 506.36L353.09 506.39L352.97 506.42L352.84 506.44L352.72 506.47L352.6 506.49L352.48 506.52L352.36 506.54L352.24 506.56L352.12 506.58L352.01 506.6L351.89 506.62L351.78 506.64L351.67 506.66L351.57 506.67L351.46 506.69L351.37 506.7L351.27 506.72L351.18 506.73L351.09 506.75L351 506.76L350.92 506.77L350.85 506.78L350.77 506.79L350.71 506.8L350.65 506.81L350.59 506.82L350.54 506.83L350.49 506.84L350.45 506.84L350.42 506.85L350.23 506.87L350.04 506.89L349.85 506.91L349.65 506.93L349.45 506.95L349.26 506.97L349.06 506.98L348.86 507L348.66 507.01L348.46 507.02L348.26 507.03L348.06 507.05L347.86 507.06L347.66 507.06L347.47 507.07L347.28 507.08L347.08 507.09L346.9 507.1L346.71 507.1L346.53 507.11L346.35 507.11L346.17 507.12L346 507.12L345.83 507.12L345.67 507.13L345.52 507.13L345.36 507.13L345.22 507.13L345.08 507.14L344.94 507.14L344.82 507.14L344.7 507.14L344.58 507.14L344.48 507.15L344.38 507.15L344.29 507.15L344.21 507.15L344.14 507.15L344.08 507.15L344.03 507.16L343.75 507.16L343.47 507.15L343.2 507.15L342.94 507.15L342.69 507.14L342.44 507.14L342.2 507.13L341.97 507.13L341.74 507.12L341.52 507.11L341.31 507.1L341.1 507.1L340.9 507.09L340.71 507.08L340.52 507.07L340.34 507.06L340.16 507.05L339.99 507.04L339.83 507.03L339.67 507.01L339.52 507L339.37 506.99L339.23 506.98L339.1 506.97L338.97 506.96L338.85 506.95L338.73 506.94L338.62 506.93L338.51 506.92L338.41 506.91L338.31 506.9L338.22 506.89L338.14 506.89L338.06 506.88L337.98 506.87L337.91 506.87L337.85 506.86L337.79 506.86L337.73 506.85L337.68 506.85L337.5 506.83L337.31 506.8L337.13 506.78L336.96 506.75L336.8 506.73L336.63 506.7L336.48 506.68L336.32 506.65L336.18 506.63L336.03 506.6L335.9 506.58L335.76 506.55L335.63 506.53L335.51 506.5L335.39 506.48L335.28 506.45L335.16 506.43L335.06 506.4L334.95 506.38L334.86 506.36L334.76 506.33L334.67 506.31L334.58 506.29L334.5 506.27L334.42 506.24L334.35 506.22L334.28 506.2L334.21 506.19L334.14 506.17L334.08 506.15L334.02 506.13L333.97 506.12L333.92 506.1L333.87 506.09L333.82 506.08L333.78 506.06L333.74 506.05L333.7 506.04L333.67 506.04L333.64 506.03L333.53 505.99L333.42 505.95L333.32 505.91L333.22 505.87L333.12 505.83L333.03 505.79L332.95 505.75L332.86 505.71L332.78 505.67L332.71 505.62L332.63 505.58L332.56 505.54L332.49 505.5L332.43 505.46L332.37 505.42L332.31 505.38L332.25 505.34L332.2 505.3L332.15 505.26L332.1 505.22L332.06 505.19L332.02 505.15L331.97 505.11L331.94 505.08L331.9 505.04L331.86 505.01L331.83 504.98L331.8 504.95L331.77 504.92L331.74 504.89L331.72 504.86L331.69 504.84L331.67 504.82L331.65 504.79L331.63 504.77L331.61 504.75L331.59 504.74L331.57 504.72L331.55 504.71L331.54 504.7L331.51 504.66L331.48 504.62L331.45 504.58L331.43 504.54L331.4 504.49L331.37 504.45L331.35 504.41L331.32 504.37L331.3 504.32L331.28 504.28L331.25 504.24L331.23 504.19L331.21 504.15L331.19 504.1L331.17 504.06L331.15 504.01L331.14 503.97L331.12 503.92L331.1 503.87L331.09 503.83L331.07 503.78L331.06 503.73L331.05 503.69L331.03 503.64L331.02 503.59L331.01 503.54L331 503.49L330.99 503.45L330.98 503.4L330.97 503.35L330.97 503.3L330.96 503.25L330.96 503.2L330.95 503.15L330.95 503.1L330.94 503.05L330.94 503.01L330.94 502.96L330.94 502.91L330.94 502.86L330.94 382.58L330.94 382.25L330.95 381.93L330.97 381.62L331 381.32L331.03 381.03L331.06 380.76L331.1 380.49L331.15 380.24L331.2 379.99L331.26 379.76L331.32 379.53L331.38 379.31L331.45 379.11L331.52 378.91L331.59 378.72L331.66 378.53L331.74 378.36L331.82 378.19L331.9 378.04L331.98 377.89L332.06 377.74L332.14 377.6L332.22 377.48L332.3 377.35L332.38 377.24L332.45 377.12L332.53 377.02L332.6 376.92L332.67 376.83L332.74 376.74L332.8 376.65L332.87 376.57L332.92 376.5L332.98 376.43L333.02 376.36L333.07 376.3L333.11 376.24L333.14 376.18L333.17 376.13L333.19 376.08L333.3 375.98L333.41 375.89L333.53 375.79L333.65 375.7L333.76 375.61L333.88 375.53L334 375.44L334.13 375.36L334.25 375.28L334.38 375.21L334.5 375.13L334.63 375.06L334.76 374.99L334.89 374.93L335.02 374.86L335.15 374.8L335.29 374.74L335.42 374.69L335.56 374.63L335.7 374.58L335.83 374.53L335.98 374.49L336.12 374.44L336.26 374.4L336.41 374.37L336.55 374.33L336.7 374.3L336.85 374.26L337 374.24L337.15 374.21L337.3 374.19L337.45 374.16L337.61 374.15L337.76 374.13L337.92 374.12L338.08 374.1L338.24 374.1L338.4 374.09L338.57 374.09L338.73 374.08L372.19 374.08L372.57 374.08L372.94 374.09ZM357.21 432.23L370.6 432.23L371.23 432.22L371.85 432.21L372.44 432.18L373.01 432.15L373.56 432.11L374.09 432.06L374.6 432.01L375.09 431.95L375.56 431.88L376 431.81L376.43 431.74L376.84 431.67L377.22 431.59L377.59 431.51L377.93 431.44L378.25 431.36L378.56 431.29L378.84 431.22L379.11 431.15L379.35 431.09L379.57 431.03L379.78 430.98L379.96 430.94L380.12 430.9L380.26 430.87L380.39 430.85L380.86 430.69L381.32 430.52L381.76 430.34L382.18 430.17L382.58 429.99L382.97 429.8L383.33 429.62L383.69 429.44L384.02 429.25L384.34 429.07L384.64 428.89L384.93 428.71L385.2 428.53L385.45 428.36L385.69 428.19L385.91 428.03L386.12 427.88L386.32 427.74L386.5 427.6L386.66 427.47L386.82 427.36L386.96 427.25L387.08 427.16L387.19 427.08L387.29 427.01L387.38 426.96L387.59 426.77L387.8 426.57L388 426.37L388.2 426.17L388.4 425.97L388.59 425.76L388.78 425.55L388.96 425.33L389.14 425.11L389.32 424.89L389.49 424.67L389.66 424.44L389.83 424.21L389.99 423.98L390.14 423.74L390.29 423.5L390.44 423.26L390.59 423.01L390.72 422.77L390.86 422.52L390.99 422.27L391.12 422.01L391.24 421.75L391.35 421.5L391.47 421.23L391.57 420.97L391.68 420.7L391.78 420.43L391.88 420.16L391.97 419.88L392.06 419.6L392.15 419.32L392.23 419.04L392.3 418.75L392.37 418.46L392.44 418.17L392.51 417.88L392.57 417.58L392.62 417.28L392.67 416.98L392.72 416.68L392.77 416.37L392.81 416.07L392.84 415.76L392.87 415.44L392.9 415.13L392.92 414.81L392.94 414.49L392.95 414.17L392.96 413.84L392.97 413.52L392.97 413.19L392.59 411.71L391.89 409.07L391.45 407.36L391.06 405.89L390.64 404.29L390.47 403.65L390.33 403.12L390.22 402.69L390.14 402.36L390.08 402.14L389.73 401.63L389.36 401.15L388.98 400.7L388.57 400.28L388.15 399.88L387.72 399.51L387.28 399.16L386.84 398.84L386.39 398.53L385.94 398.25L385.49 397.98L385.04 397.74L384.6 397.51L384.17 397.3L383.75 397.11L383.34 396.93L382.95 396.77L382.58 396.62L382.23 396.48L381.9 396.35L381.6 396.24L381.33 396.13L381.09 396.04L380.89 395.95L380.72 395.87L380.59 395.79L380.41 395.75L380.24 395.71L380.07 395.66L379.9 395.62L379.72 395.59L379.55 395.55L379.37 395.51L379.2 395.47L379.03 395.44L378.85 395.4L378.68 395.37L378.5 395.34L378.33 395.31L378.15 395.27L377.98 395.24L377.8 395.22L377.63 395.19L377.45 395.16L377.28 395.13L377.1 395.11L376.92 395.08L376.75 395.06L376.57 395.03L376.4 395.01L376.22 394.99L376.04 394.97L375.84 394.95L375.64 394.92L375.43 394.9L375.21 394.88L374.99 394.86L374.76 394.84L374.53 394.83L374.29 394.81L374.05 394.79L373.79 394.78L373.54 394.76L373.28 394.75L373.01 394.74L372.73 394.73L372.46 394.72L372.17 394.71L371.88 394.7L371.58 394.69L371.28 394.68L370.97 394.68L370.66 394.67L370.34 394.67L370.01 394.67L369.68 394.66L369.34 394.66L369 394.66L357.21 394.66L357.21 432.23Z" id="agnblwtk0"></path><path d="M516.89 500.45C516.64 502.55 516.21 503.58 516.14 503.93C515.64 505.31 515.01 505.73 514.89 505.93C514.39 506.33 513.77 506.55 513.14 506.54C507.21 506.54 459.83 506.54 453.91 506.54C450.61 506.54 448.92 504.75 448.36 504.55C446.86 503.22 446.11 501.05 446.11 498.05C446.11 425.88 446.11 385.79 446.11 377.77C446.11 377.1 446.34 376.45 446.76 375.93C447.41 375.11 448.69 374.73 448.91 374.6C450.41 374.08 452.55 373.86 452.96 373.78C455.5 373.47 458.66 373.5 459.3 373.47C463.19 373.47 465.05 373.75 465.69 373.78C468.19 374.08 469.29 374.51 469.69 374.6C471.19 375.11 471.62 375.79 471.83 375.93C472.26 376.45 472.49 377.1 472.48 377.77C472.48 384.87 472.48 420.39 472.48 484.33C496.88 484.33 510.43 484.33 513.14 484.33C513.77 484.32 514.38 484.52 514.89 484.89C515.64 485.45 516.01 486.55 516.14 486.73C516.64 488.01 516.81 489.77 516.89 490.11C517.05 491.51 517.14 493.24 517.14 495.28C516.99 498.38 516.9 500.11 516.89 500.45Z" id="cCmIIqVqe"></path><path d="M576.1 374.11L577.32 374.14L578.51 374.19L579.67 374.25L580.8 374.31L581.91 374.39L582.98 374.48L584.02 374.57L585.03 374.67L586.02 374.78L586.97 374.9L587.9 375.02L588.8 375.15L589.67 375.29L590.51 375.42L591.33 375.56L592.12 375.71L592.88 375.85L593.61 376L594.32 376.15L595 376.3L595.65 376.44L596.28 376.59L596.88 376.74L597.46 376.88L598.01 377.02L598.53 377.15L599.03 377.28L599.5 377.41L599.95 377.53L600.38 377.64L600.77 377.74L601.15 377.84L601.5 377.93L601.82 378.01L602.13 378.08L602.4 378.14L602.66 378.19L602.89 378.23L603.78 378.54L604.65 378.87L605.5 379.2L606.33 379.55L607.14 379.9L607.92 380.25L608.68 380.61L609.43 380.98L610.15 381.35L610.85 381.72L611.53 382.1L612.2 382.48L612.84 382.86L613.46 383.23L614.06 383.61L614.64 383.99L615.21 384.36L615.75 384.73L616.28 385.1L616.78 385.46L617.27 385.82L617.74 386.17L618.19 386.52L618.62 386.85L619.04 387.18L619.43 387.5L619.81 387.8L620.17 388.1L620.51 388.38L620.84 388.66L621.15 388.92L621.44 389.16L621.71 389.39L621.97 389.6L622.21 389.8L622.43 389.98L622.64 390.14L622.83 390.29L623.01 390.41L623.17 390.51L623.78 391.13L624.37 391.75L624.94 392.37L625.49 393L626.02 393.63L626.54 394.26L627.04 394.9L627.52 395.54L627.98 396.17L628.43 396.8L628.86 397.44L629.27 398.07L629.67 398.69L630.06 399.31L630.43 399.92L630.78 400.53L631.12 401.13L631.45 401.72L631.76 402.3L632.06 402.87L632.34 403.42L632.62 403.97L632.88 404.5L633.12 405.02L633.36 405.52L633.59 406.01L633.8 406.48L634 406.93L634.19 407.37L634.38 407.78L634.55 408.17L634.71 408.54L634.86 408.89L635.01 409.22L635.14 409.52L635.27 409.79L635.39 410.04L635.5 410.27L635.61 410.46L635.7 410.63L635.92 411.23L636.12 411.83L636.32 412.44L636.52 413.06L636.71 413.68L636.9 414.3L637.08 414.93L637.25 415.57L637.42 416.21L637.58 416.85L637.74 417.5L637.9 418.15L638.04 418.81L638.19 419.47L638.32 420.14L638.45 420.81L638.58 421.49L638.7 422.17L638.82 422.86L638.93 423.55L639.03 424.25L639.13 424.95L639.22 425.65L639.31 426.36L639.4 427.08L639.47 427.8L639.55 428.52L639.61 429.25L639.68 429.98L639.73 430.72L639.78 431.47L639.83 432.21L639.87 432.97L639.9 433.72L639.93 434.49L639.96 435.25L639.98 436.02L639.99 436.8L640 437.58L640 438.37L635.35 469.54L635 470.5L634.64 471.43L634.27 472.34L633.89 473.22L633.5 474.08L633.11 474.91L632.71 475.72L632.31 476.5L631.91 477.27L631.5 478.01L631.09 478.72L630.68 479.41L630.27 480.08L629.86 480.73L629.45 481.36L629.04 481.96L628.63 482.55L628.23 483.11L627.84 483.65L627.45 484.17L627.06 484.67L626.68 485.15L626.31 485.61L625.95 486.05L625.6 486.47L625.26 486.87L624.93 487.26L624.61 487.62L624.3 487.97L624.01 488.3L623.74 488.61L623.47 488.91L623.23 489.19L623 489.45L622.79 489.69L622.59 489.92L622.42 490.13L622.26 490.33L622.13 490.51L622.02 490.68L621.37 491.28L620.71 491.86L620.04 492.43L619.37 492.97L618.7 493.49L618.03 494L617.36 494.49L616.69 494.96L616.02 495.41L615.35 495.84L614.68 496.26L614.02 496.66L613.37 497.04L612.72 497.41L612.07 497.76L611.44 498.1L610.81 498.42L610.19 498.73L609.59 499.03L608.99 499.31L608.41 499.58L607.84 499.83L607.28 500.08L606.74 500.31L606.21 500.53L605.71 500.74L605.22 500.94L604.75 501.12L604.29 501.3L603.86 501.47L603.45 501.63L603.07 501.78L602.7 501.92L602.37 502.05L602.05 502.18L601.76 502.3L601.5 502.41L601.27 502.51L601.07 502.61L600.89 502.7L600.27 502.89L599.64 503.08L599 503.26L598.36 503.43L597.71 503.6L597.06 503.77L596.4 503.93L595.73 504.08L595.06 504.24L594.38 504.38L593.7 504.52L593.01 504.66L592.31 504.79L591.61 504.92L590.9 505.04L590.19 505.16L589.47 505.27L588.74 505.38L588.01 505.48L587.27 505.58L586.53 505.67L585.78 505.76L585.02 505.85L584.26 505.93L583.5 506L582.72 506.07L581.94 506.14L581.16 506.2L580.37 506.25L579.57 506.3L578.77 506.35L577.96 506.39L577.14 506.42L576.32 506.45L575.5 506.48L574.67 506.5L573.83 506.52L572.98 506.53L572.13 506.54L571.28 506.54L540.41 506.54L540.17 506.54L539.93 506.53L539.7 506.51L539.47 506.49L539.25 506.46L539.03 506.43L538.82 506.39L538.62 506.35L538.42 506.31L538.23 506.26L538.04 506.2L537.86 506.15L537.69 506.09L537.52 506.03L537.35 505.96L537.19 505.9L537.04 505.83L536.89 505.76L536.75 505.69L536.61 505.62L536.48 505.55L536.35 505.48L536.23 505.41L536.11 505.33L535.99 505.27L535.89 505.2L535.78 505.13L535.68 505.07L535.59 505L535.5 504.94L535.42 504.88L535.34 504.83L535.26 504.78L535.19 504.73L535.13 504.69L535.07 504.65L535.01 504.62L534.96 504.59L534.91 504.56L534.87 504.55L534.75 504.44L534.65 504.34L534.54 504.23L534.44 504.12L534.34 504.01L534.24 503.89L534.15 503.77L534.06 503.65L533.97 503.52L533.88 503.39L533.8 503.26L533.72 503.12L533.64 502.98L533.57 502.84L533.5 502.7L533.43 502.55L533.36 502.4L533.3 502.24L533.24 502.08L533.18 501.92L533.13 501.76L533.07 501.59L533.02 501.42L532.98 501.25L532.93 501.07L532.89 500.89L532.86 500.71L532.82 500.52L532.79 500.33L532.76 500.14L532.73 499.95L532.71 499.75L532.69 499.55L532.67 499.34L532.65 499.13L532.64 498.92L532.63 498.71L532.62 498.49L532.62 498.27L532.62 498.05L532.62 382.58L532.62 382.25L532.63 381.93L532.65 381.62L532.68 381.32L532.71 381.03L532.74 380.76L532.78 380.49L532.83 380.24L532.88 379.99L532.94 379.76L533 379.53L533.06 379.31L533.13 379.11L533.2 378.91L533.27 378.72L533.34 378.53L533.42 378.36L533.5 378.19L533.58 378.04L533.66 377.89L533.74 377.74L533.82 377.6L533.9 377.48L533.98 377.35L534.06 377.24L534.13 377.12L534.21 377.02L534.28 376.92L534.35 376.83L534.42 376.74L534.48 376.65L534.55 376.57L534.6 376.5L534.66 376.43L534.7 376.36L534.75 376.3L534.79 376.24L534.82 376.18L534.85 376.13L534.87 376.08L534.98 375.98L535.09 375.89L535.21 375.79L535.33 375.7L535.44 375.61L535.56 375.53L535.68 375.44L535.81 375.36L535.93 375.28L536.06 375.21L536.18 375.13L536.31 375.06L536.44 374.99L536.57 374.93L536.7 374.86L536.83 374.8L536.97 374.74L537.1 374.69L537.24 374.63L537.38 374.58L537.51 374.53L537.66 374.49L537.8 374.44L537.94 374.4L538.08 374.37L538.23 374.33L538.38 374.3L538.53 374.26L538.68 374.24L538.83 374.21L538.98 374.19L539.13 374.16L539.29 374.15L539.44 374.13L539.6 374.12L539.76 374.1L539.92 374.1L540.08 374.09L540.25 374.09L540.41 374.08L573.57 374.08L574.85 374.09L576.1 374.11ZM558.79 485.25L572.47 485.25L573.27 485.25L574.05 485.23L574.81 485.21L575.56 485.18L576.28 485.14L576.98 485.09L577.67 485.04L578.33 484.98L578.98 484.91L579.61 484.84L580.22 484.77L580.82 484.69L581.39 484.6L581.95 484.51L582.49 484.42L583.01 484.32L583.52 484.23L584 484.13L584.47 484.03L584.93 483.92L585.37 483.82L585.79 483.72L586.19 483.62L586.58 483.52L586.95 483.42L587.3 483.32L587.64 483.22L587.96 483.13L588.27 483.04L588.56 482.95L588.84 482.87L589.1 482.79L589.35 482.72L589.58 482.65L589.79 482.59L589.99 482.53L590.18 482.49L590.35 482.44L590.51 482.41L590.65 482.38L591.2 482.17L591.74 481.94L592.26 481.71L592.76 481.47L593.26 481.23L593.74 480.98L594.2 480.72L594.66 480.47L595.1 480.21L595.53 479.95L595.94 479.68L596.35 479.42L596.74 479.15L597.11 478.88L597.48 478.62L597.83 478.35L598.18 478.09L598.51 477.82L598.82 477.57L599.13 477.31L599.43 477.06L599.71 476.81L599.98 476.57L600.24 476.33L600.49 476.1L600.73 475.87L600.96 475.65L601.18 475.44L601.38 475.24L601.58 475.05L601.77 474.87L601.94 474.69L602.11 474.53L602.26 474.38L602.41 474.24L602.54 474.11L602.67 474L602.79 473.89L602.89 473.81L602.99 473.74L603.35 473.3L603.71 472.86L604.05 472.41L604.38 471.97L604.7 471.52L605 471.06L605.3 470.61L605.59 470.16L605.86 469.7L606.13 469.25L606.38 468.8L606.63 468.35L606.86 467.9L607.09 467.46L607.31 467.02L607.51 466.59L607.71 466.16L607.91 465.74L608.09 465.32L608.26 464.91L608.43 464.52L608.59 464.12L608.74 463.74L608.88 463.37L609.02 463.01L609.15 462.66L609.28 462.32L609.39 462L609.5 461.69L609.61 461.39L609.71 461.11L609.8 460.85L609.89 460.6L609.98 460.36L610.05 460.15L610.13 459.95L610.2 459.77L610.26 459.61L610.32 459.47L610.38 459.35L610.5 458.92L610.62 458.49L610.73 458.05L610.85 457.6L610.95 457.16L611.06 456.71L611.16 456.25L611.26 455.8L611.36 455.34L611.45 454.87L611.54 454.41L611.63 453.93L611.71 453.46L611.79 452.98L611.87 452.5L611.95 452.01L612.02 451.53L612.09 451.03L612.15 450.54L612.22 450.04L612.28 449.53L612.33 449.03L612.39 448.52L612.44 448L612.49 447.48L612.53 446.96L612.57 446.44L612.61 445.91L612.65 445.38L612.68 444.84L612.71 444.3L612.73 443.76L612.76 443.21L612.78 442.66L612.79 442.11L612.81 441.55L612.82 440.99L612.83 440.43L612.83 439.86L612.83 439.29L610.69 421.79L610.52 421.19L610.35 420.6L610.17 420.03L609.99 419.47L609.8 418.92L609.61 418.38L609.41 417.86L609.21 417.36L609.01 416.86L608.8 416.38L608.59 415.91L608.38 415.46L608.17 415.01L607.96 414.58L607.74 414.16L607.53 413.76L607.32 413.37L607.11 412.99L606.9 412.62L606.69 412.27L606.49 411.93L606.29 411.6L606.09 411.28L605.9 410.97L605.71 410.68L605.53 410.4L605.35 410.14L605.18 409.88L605.02 409.64L604.86 409.41L604.71 409.19L604.57 408.98L604.44 408.79L604.31 408.61L604.2 408.43L604.1 408.28L604 408.13L603.92 408L603.85 407.87L603.79 407.76L603.43 407.32L603.07 406.9L602.7 406.48L602.33 406.08L601.96 405.7L601.58 405.32L601.2 404.96L600.82 404.61L600.44 404.27L600.06 403.94L599.68 403.62L599.3 403.32L598.92 403.02L598.55 402.74L598.17 402.47L597.81 402.2L597.44 401.95L597.08 401.71L596.73 401.47L596.38 401.25L596.04 401.04L595.7 400.83L595.38 400.64L595.06 400.45L594.75 400.27L594.45 400.1L594.16 399.94L593.88 399.78L593.61 399.64L593.36 399.5L593.12 399.37L592.89 399.25L592.67 399.13L592.47 399.02L592.29 398.92L592.12 398.82L591.96 398.73L591.83 398.65L591.71 398.57L591.61 398.5L591.23 398.33L590.85 398.17L590.46 398.02L590.07 397.87L589.67 397.72L589.27 397.57L588.86 397.43L588.44 397.3L588.02 397.17L587.6 397.04L587.16 396.92L586.72 396.8L586.28 396.69L585.83 396.58L585.37 396.47L584.91 396.37L584.44 396.27L583.97 396.18L583.49 396.09L583 396L582.51 395.92L582.02 395.84L581.51 395.77L581 395.7L580.49 395.64L579.97 395.58L579.44 395.52L578.91 395.47L578.38 395.42L577.83 395.38L577.28 395.34L576.73 395.3L576.17 395.27L575.6 395.25L575.03 395.22L574.45 395.2L573.87 395.19L573.28 395.18L572.68 395.17L572.08 395.17L558.79 395.17L558.79 485.25Z" id="a9GxsWIu"></path><path d="M112.85 534.57L113.39 534.6L113.9 534.65L114.39 534.7L114.84 534.76L115.27 534.83L115.67 534.91L116.04 534.98L116.38 535.06L116.7 535.14L116.99 535.22L117.26 535.29L117.49 535.36L117.71 535.42L117.9 535.48L118.06 535.52L118.2 535.56L118.32 535.58L118.73 535.75L119.13 535.93L119.5 536.11L119.86 536.3L120.19 536.5L120.5 536.69L120.8 536.89L121.07 537.08L121.32 537.27L121.55 537.45L121.77 537.63L121.97 537.8L122.15 537.95L122.31 538.1L122.45 538.23L122.58 538.34L122.69 538.44L122.79 538.52L122.87 538.58L123.15 538.89L123.41 539.21L123.65 539.52L123.88 539.84L124.09 540.16L124.28 540.47L124.46 540.78L124.63 541.07L124.78 541.36L124.91 541.64L125.04 541.91L125.15 542.16L125.25 542.39L125.34 542.6L125.42 542.8L125.49 542.97L125.55 543.11L125.61 543.23L125.65 543.32L125.75 543.61L125.84 543.91L125.93 544.21L126.01 544.52L126.09 544.83L126.16 545.15L126.22 545.47L126.28 545.79L126.34 546.12L126.39 546.45L126.43 546.78L126.47 547.12L126.51 547.46L126.53 547.81L126.56 548.16L126.58 548.52L126.59 548.88L126.6 549.24L126.6 549.61L125.59 556.65L125.43 557.11L125.26 557.55L125.08 557.96L124.89 558.35L124.7 558.71L124.51 559.06L124.32 559.38L124.13 559.67L123.95 559.95L123.77 560.21L123.59 560.44L123.43 560.66L123.27 560.85L123.13 561.03L123 561.18L122.89 561.32L122.79 561.44L122.71 561.55L122.66 561.63L122.35 561.94L122.04 562.22L121.72 562.48L121.41 562.72L121.09 562.94L120.78 563.15L120.47 563.34L120.17 563.51L119.88 563.67L119.6 563.82L119.34 563.95L119.09 564.06L118.85 564.17L118.64 564.27L118.44 564.35L118.27 564.42L118.13 564.49L118.01 564.55L117.92 564.6L117.62 564.7L117.31 564.79L117 564.88L116.69 564.97L116.36 565.05L116.03 565.12L115.7 565.19L115.36 565.25L115.01 565.31L114.66 565.36L114.3 565.41L113.94 565.45L113.57 565.48L113.19 565.51L112.81 565.54L112.42 565.56L112.03 565.57L111.63 565.58L111.22 565.58L104.81 565.58L104.75 565.58L104.69 565.58L104.63 565.57L104.57 565.56L104.52 565.55L104.46 565.54L104.4 565.53L104.35 565.51L104.29 565.49L104.24 565.47L104.19 565.45L104.13 565.43L104.08 565.4L104.03 565.37L103.98 565.34L103.93 565.31L103.88 565.28L103.83 565.25L103.79 565.21L103.74 565.17L103.69 565.12L103.65 565.08L103.61 565.03L103.57 564.97L103.53 564.92L103.5 564.86L103.47 564.8L103.44 564.73L103.42 564.66L103.39 564.59L103.37 564.51L103.36 564.44L103.34 564.35L103.33 564.27L103.32 564.18L103.31 564.09L103.31 564L103.31 563.9L103.31 536.22L103.31 536.08L103.32 535.95L103.34 535.82L103.36 535.71L103.38 535.61L103.41 535.52L103.44 535.44L103.48 535.36L103.51 535.29L103.55 535.23L103.58 535.18L103.62 535.13L103.65 535.09L103.69 535.05L103.71 535.01L103.74 534.98L103.76 534.96L103.78 534.93L103.79 534.91L103.83 534.87L103.88 534.84L103.93 534.81L103.98 534.78L104.03 534.75L104.08 534.72L104.13 534.69L104.19 534.67L104.24 534.65L104.29 534.63L104.35 534.61L104.4 534.59L104.46 534.58L104.52 534.57L104.57 534.56L104.63 534.55L104.69 534.54L104.75 534.54L104.81 534.54L111.67 534.54L112.27 534.55L112.85 534.57ZM107.33 562.12L111.47 562.12L112.12 562.11L112.72 562.08L113.26 562.03L113.77 561.97L114.22 561.9L114.64 561.82L115 561.74L115.33 561.66L115.62 561.58L115.86 561.51L116.07 561.45L116.24 561.41L116.37 561.38L116.66 561.26L116.95 561.14L117.23 561.01L117.51 560.86L117.78 560.7L118.04 560.54L118.3 560.36L118.55 560.17L118.8 559.98L119.03 559.77L119.26 559.56L119.48 559.33L119.69 559.1L119.98 558.74L120.25 558.37L120.48 558L120.69 557.63L120.88 557.26L121.04 556.91L121.18 556.58L121.31 556.27L121.41 555.99L121.5 555.74L121.58 555.53L121.64 555.36L121.69 555.25L121.79 554.89L121.88 554.52L121.96 554.14L122.04 553.74L122.11 553.34L122.17 552.93L122.22 552.51L122.26 552.08L122.3 551.64L122.33 551.19L122.35 550.73L122.36 550.26L122.36 549.77L122.33 549.3L122.3 548.84L122.26 548.4L122.22 547.98L122.18 547.58L122.13 547.2L122.09 546.84L122.04 546.5L121.99 546.18L121.93 545.88L121.87 545.59L121.81 545.33L121.75 545.08L121.66 544.77L121.56 544.46L121.45 544.15L121.33 543.85L121.2 543.55L121.07 543.25L120.92 542.96L120.76 542.67L120.6 542.39L120.42 542.12L120.24 541.85L120.04 541.58L119.84 541.33L119.63 541.08L119.42 540.85L119.19 540.62L118.96 540.4L118.72 540.19L118.47 539.99L118.22 539.8L117.95 539.62L117.69 539.45L117.41 539.28L117.13 539.13L116.84 538.99L116.55 538.85L116.24 538.72L115.91 538.6L115.57 538.49L115.22 538.39L114.85 538.3L114.47 538.22L114.08 538.16L113.67 538.1L113.25 538.05L112.81 538.01L112.37 537.99L111.9 537.97L111.43 537.97L107.33 537.97L107.33 562.12Z" id="b5s0wC74Z8"></path><path d="M184.38 564.96C184.38 565.08 184.35 565.19 184.28 565.29C184.2 565.4 184.09 565.48 183.96 565.52C183.75 565.59 183.55 565.63 183.33 565.66C182.69 565.74 182.05 565.74 181.41 565.66C181.19 565.64 180.98 565.59 180.77 565.52C180.64 565.48 180.53 565.4 180.45 565.29C180.38 565.19 180.35 565.08 180.35 564.96C180.35 561.98 180.35 538.14 180.35 535.17C180.35 535.04 180.39 534.93 180.46 534.83C180.55 534.72 180.67 534.64 180.81 534.6C181.01 534.54 181.22 534.49 181.44 534.46C181.75 534.42 182.05 534.4 182.36 534.4C182.69 534.39 183.01 534.41 183.33 534.46C183.55 534.49 183.75 534.54 183.96 534.6C184.09 534.64 184.2 534.72 184.28 534.83C184.35 534.93 184.38 535.05 184.38 535.17C184.38 541.12 184.38 559 184.38 564.96Z" id="dR5FhRsFe"></path><path d="M262.61 539.57C262.59 539.77 262.54 539.96 262.47 540.15C262.43 540.27 262.35 540.39 262.24 540.47C262.15 540.53 262.04 540.57 261.93 540.57C261.65 540.57 261.09 540.16 261 540.11C260.44 539.73 259.85 539.4 259.24 539.1C258.4 538.69 257.51 538.35 256.61 538.1C255.08 537.64 253.33 537.69 252.97 537.64C250.46 537.64 248.93 538.48 248.48 538.58C247.17 539.18 246.02 540.06 245.1 541.17C243.72 542.82 243.19 544.71 242.98 545.1C242.48 546.7 242.23 548.37 242.25 550.04C242.25 553.01 242.97 554.79 243.05 555.32C243.86 557.62 245.07 558.82 245.29 559.2C246.23 560.25 247.39 561.07 248.69 561.6C250.67 562.42 252.6 562.34 253.04 562.42C254 562.42 254.95 562.3 255.88 562.07C256.82 561.85 257.72 561.5 258.56 561.03C258.56 560.42 258.56 557.41 258.56 551.98C254.35 551.98 252.01 551.98 251.54 551.98C251.14 551.98 251 551.62 250.94 551.58C250.74 551.17 250.76 550.43 250.74 550.3C250.74 550.04 250.76 549.78 250.79 549.52C250.81 549.34 250.86 549.16 250.94 549C251 548.88 251.08 548.77 251.19 548.7C251.29 548.63 251.42 548.6 251.54 548.6C252.5 548.6 260.2 548.6 261.16 548.6C261.34 548.6 261.51 548.63 261.67 548.7C261.85 548.76 262.01 548.86 262.14 548.99C262.29 549.13 262.41 549.31 262.47 549.51C262.55 549.76 262.59 550.02 262.59 550.28C262.59 551.47 262.59 560.93 262.59 562.11C262.6 562.48 262.52 562.85 262.38 563.19C262.17 563.65 261.58 563.91 261.49 563.99C260.92 564.28 260.33 564.53 259.73 564.75C259 565.02 258.26 565.26 257.51 565.44C255.99 565.83 254.44 566.02 252.87 566.02C249.36 566.02 247.23 565.02 246.6 564.91C244.83 564.21 243.23 563.12 241.93 561.73C240.02 559.66 239.31 557.28 239.02 556.79C238.01 553.91 238.11 551 238.01 550.36C238.01 546.66 238.99 544.34 239.1 543.67C240.19 540.67 241.86 539.07 242.16 538.56C243.5 537.14 245.12 536.02 246.92 535.28C249.69 534.12 252.45 534.23 253.06 534.12C254.15 534.11 255.24 534.22 256.31 534.43C257.23 534.61 258.13 534.86 259.02 535.16C259.71 535.4 260.38 535.7 261.01 536.07C261.82 536.57 262.01 536.8 262.12 536.88C262.32 537.08 262.46 537.33 262.54 537.6C262.63 537.98 262.67 538.37 262.66 538.76C262.66 539.03 262.65 539.3 262.61 539.57Z" id="a3oYU8dR6f"></path><path d="M321.55 564.96C321.55 565.08 321.51 565.19 321.45 565.29C321.37 565.4 321.25 565.48 321.12 565.52C320.92 565.59 320.71 565.63 320.5 565.66C319.86 565.74 319.21 565.74 318.57 565.66C318.36 565.64 318.15 565.59 317.94 565.52C317.81 565.48 317.7 565.4 317.61 565.29C317.55 565.19 317.52 565.08 317.52 564.96C317.52 561.98 317.52 538.14 317.52 535.17C317.52 535.04 317.55 534.93 317.62 534.83C317.71 534.72 317.84 534.64 317.97 534.6C318.18 534.54 318.39 534.49 318.61 534.46C318.91 534.42 319.22 534.4 319.53 534.4C319.86 534.39 320.18 534.41 320.5 534.46C320.71 534.49 320.92 534.54 321.12 534.6C321.25 534.64 321.37 534.72 321.45 534.83C321.51 534.93 321.55 535.05 321.55 535.17C321.55 541.12 321.55 559 321.55 564.96Z" id="c28oESiVDx"></path><path d="M396.42 537.11C396.39 537.29 396.34 537.48 396.26 537.65C396.21 537.77 396.12 537.87 396.01 537.95C395.9 538.01 395.79 538.04 395.67 538.04C395.1 538.04 392.26 538.04 387.15 538.04C387.15 554.19 387.15 563.16 387.15 564.96C387.15 565.07 387.11 565.19 387.05 565.29C386.97 565.4 386.85 565.48 386.72 565.52C386.52 565.58 386.31 565.63 386.1 565.66C385.46 565.74 384.81 565.74 384.17 565.66C383.96 565.63 383.75 565.59 383.54 565.52C383.41 565.48 383.3 565.4 383.21 565.29C383.15 565.19 383.12 565.07 383.12 564.96C383.12 563.16 383.12 554.19 383.12 538.04C378.01 538.04 375.17 538.04 374.6 538.04C374.48 538.04 374.37 538.01 374.26 537.95C374.15 537.87 374.07 537.77 374.02 537.65C373.95 537.47 373.89 537.29 373.87 537.11C373.82 536.85 373.8 536.58 373.81 536.32C373.8 536.05 373.82 535.78 373.87 535.51C373.89 535.32 373.95 535.13 374.02 534.95C374.07 534.82 374.15 534.71 374.26 534.64C374.37 534.57 374.48 534.54 374.6 534.54C376.71 534.54 393.56 534.54 395.67 534.54C395.79 534.54 395.91 534.57 396.01 534.64C396.12 534.71 396.21 534.82 396.27 534.95C396.35 535.13 396.4 535.32 396.42 535.51C396.45 535.78 396.47 536.05 396.46 536.31C396.46 536.58 396.45 536.84 396.42 537.11Z" id="b57u3nVYc5"></path><path d="M455.57 534.4L455.66 534.4L455.75 534.4L455.84 534.41L455.92 534.41L455.99 534.41L456.06 534.41L456.13 534.41L456.19 534.42L456.25 534.42L456.3 534.42L456.35 534.42L456.39 534.43L456.44 534.43L456.47 534.43L456.51 534.43L456.54 534.43L456.56 534.44L456.59 534.44L456.6 534.44L456.64 534.44L456.68 534.44L456.72 534.45L456.76 534.45L456.8 534.45L456.83 534.46L456.87 534.46L456.91 534.47L456.95 534.47L456.99 534.48L457.03 534.48L457.06 534.49L457.1 534.5L457.14 534.51L457.18 534.51L457.21 534.52L457.25 534.53L457.29 534.54L457.33 534.55L457.36 534.56L457.4 534.57L457.43 534.58L457.45 534.58L457.48 534.59L457.5 534.6L457.52 534.61L457.55 534.62L457.57 534.63L457.6 534.64L457.62 534.66L457.64 534.67L457.66 534.68L457.69 534.7L457.71 534.71L457.73 534.73L457.75 534.74L457.77 534.76L457.79 534.77L457.81 534.79L457.83 534.81L457.85 534.83L457.87 534.85L457.89 534.86L457.9 534.88L457.92 534.9L457.93 534.92L457.95 534.94L457.96 534.96L457.97 534.98L457.99 535L458 535.02L458.01 535.04L458.03 535.06L458.04 535.09L458.05 535.11L458.06 535.13L458.07 535.15L458.08 535.17L458.09 535.2L458.1 535.22L458.11 535.24L458.12 535.27L458.13 535.29L468.29 564.12L468.3 564.16L468.32 564.2L468.33 564.24L468.34 564.28L468.36 564.32L468.37 564.35L468.38 564.4L468.39 564.44L468.4 564.48L468.41 564.52L468.42 564.56L468.43 564.6L468.44 564.64L468.45 564.68L468.45 564.72L468.46 564.76L468.47 564.8L468.47 564.84L468.48 564.89L468.48 564.93L468.48 564.97L468.49 565L468.49 565.02L468.49 565.05L468.49 565.07L468.48 565.1L468.48 565.12L468.48 565.15L468.47 565.17L468.47 565.2L468.46 565.22L468.45 565.25L468.44 565.27L468.43 565.29L468.42 565.32L468.4 565.34L468.39 565.36L468.38 565.38L468.36 565.4L468.34 565.42L468.33 565.44L468.31 565.46L468.28 565.48L468.25 565.51L468.22 565.52L468.19 565.54L468.15 565.56L468.12 565.57L468.08 565.59L468.04 565.6L468.01 565.61L467.97 565.62L467.93 565.63L467.9 565.64L467.87 565.64L467.84 565.65L467.81 565.65L467.78 565.66L467.75 565.66L467.73 565.67L467.71 565.67L467.7 565.67L467.69 565.68L467.63 565.68L467.58 565.69L467.52 565.69L467.47 565.7L467.41 565.7L467.36 565.7L467.3 565.71L467.25 565.71L467.19 565.71L467.14 565.72L467.08 565.72L467.03 565.72L466.97 565.72L466.92 565.72L466.86 565.72L466.81 565.72L466.75 565.73L466.7 565.73L466.64 565.73L466.59 565.73L466.53 565.73L466.43 565.73L466.34 565.72L466.25 565.72L466.16 565.72L466.08 565.72L466.01 565.72L465.94 565.72L465.87 565.71L465.81 565.71L465.75 565.71L465.7 565.71L465.65 565.71L465.61 565.7L465.57 565.7L465.53 565.7L465.49 565.7L465.46 565.69L465.44 565.69L465.41 565.69L465.39 565.69L465.38 565.69L465.34 565.69L465.31 565.69L465.28 565.68L465.25 565.68L465.22 565.68L465.19 565.67L465.15 565.67L465.12 565.66L465.09 565.66L465.06 565.65L465.03 565.65L465 565.64L464.97 565.64L464.93 565.63L464.9 565.62L464.87 565.61L464.84 565.61L464.81 565.6L464.78 565.59L464.75 565.58L464.72 565.57L464.7 565.56L464.68 565.56L464.67 565.55L464.65 565.54L464.63 565.53L464.61 565.53L464.6 565.52L464.58 565.51L464.56 565.5L464.55 565.49L464.53 565.47L464.52 565.46L464.5 565.45L464.49 565.44L464.47 565.43L464.46 565.41L464.44 565.4L464.43 565.39L464.42 565.37L464.4 565.36L464.39 565.34L464.38 565.33L464.37 565.31L464.36 565.29L464.35 565.28L464.34 565.26L464.33 565.24L464.32 565.23L464.31 565.21L464.3 565.19L464.29 565.18L464.28 565.16L464.27 565.14L464.26 565.13L464.25 565.11L464.24 565.09L464.23 565.07L464.23 565.05L464.22 565.04L464.21 565.02L464.2 565L464.19 564.98L461.59 557.43L449 557.43L446.52 564.89L446.51 564.91L446.51 564.93L446.5 564.94L446.49 564.96L446.49 564.98L446.48 565L446.47 565.02L446.46 565.04L446.46 565.05L446.45 565.07L446.44 565.09L446.43 565.11L446.42 565.13L446.41 565.14L446.4 565.16L446.39 565.18L446.38 565.19L446.37 565.21L446.36 565.23L446.35 565.24L446.33 565.26L446.32 565.28L446.31 565.29L446.29 565.31L446.28 565.32L446.26 565.34L446.25 565.35L446.23 565.37L446.22 565.38L446.2 565.39L446.19 565.41L446.17 565.42L446.15 565.43L446.14 565.44L446.12 565.45L446.1 565.47L446.09 565.48L446.07 565.49L446.05 565.5L446.03 565.51L446.01 565.52L445.99 565.52L445.97 565.54L445.94 565.55L445.91 565.56L445.88 565.57L445.85 565.58L445.82 565.59L445.79 565.6L445.76 565.61L445.73 565.62L445.7 565.62L445.67 565.63L445.64 565.64L445.61 565.64L445.58 565.65L445.55 565.66L445.52 565.66L445.49 565.67L445.46 565.67L445.42 565.67L445.39 565.68L445.36 565.68L445.31 565.68L445.26 565.69L445.21 565.69L445.16 565.7L445.11 565.7L445.06 565.71L445.01 565.71L444.96 565.71L444.91 565.72L444.86 565.72L444.8 565.72L444.75 565.72L444.7 565.72L444.65 565.73L444.6 565.73L444.55 565.73L444.5 565.73L444.45 565.73L444.4 565.73L444.35 565.73L444.3 565.73L444.24 565.73L444.19 565.73L444.14 565.73L444.08 565.73L444.03 565.73L443.98 565.73L443.93 565.72L443.87 565.72L443.82 565.72L443.77 565.72L443.71 565.72L443.66 565.71L443.61 565.71L443.55 565.7L443.5 565.7L443.45 565.7L443.4 565.69L443.34 565.69L443.29 565.68L443.24 565.67L443.19 565.67L443.13 565.66L443.07 565.65L443.02 565.64L442.97 565.63L442.93 565.61L442.89 565.6L442.85 565.59L442.81 565.57L442.78 565.56L442.75 565.55L442.73 565.53L442.7 565.52L442.68 565.51L442.66 565.5L442.65 565.49L442.63 565.48L442.62 565.47L442.61 565.46L442.6 565.45L442.59 565.45L442.58 565.44L442.56 565.42L442.54 565.4L442.53 565.38L442.51 565.36L442.5 565.34L442.49 565.32L442.47 565.29L442.46 565.27L442.45 565.25L442.44 565.23L442.44 565.2L442.43 565.18L442.42 565.15L442.42 565.13L442.41 565.1L442.41 565.08L442.41 565.05L442.41 565.03L442.41 565L442.41 564.98L442.42 564.91L442.42 564.87L442.43 564.82L442.43 564.78L442.44 564.74L442.44 564.7L442.45 564.66L442.46 564.62L442.47 564.58L442.48 564.54L442.49 564.5L442.5 564.46L442.51 564.42L442.52 564.37L442.53 564.33L442.54 564.29L442.55 564.25L442.57 564.22L442.58 564.18L442.6 564.14L442.61 564.1L452.77 535.27L452.78 535.24L452.78 535.22L452.79 535.2L452.8 535.18L452.81 535.15L452.82 535.13L452.83 535.11L452.84 535.09L452.85 535.07L452.86 535.05L452.88 535.03L452.89 535.01L452.9 534.99L452.91 534.97L452.93 534.95L452.94 534.93L452.96 534.91L452.97 534.89L452.98 534.87L453 534.85L453.01 534.83L453.03 534.82L453.05 534.8L453.07 534.78L453.09 534.77L453.11 534.75L453.13 534.73L453.15 534.72L453.17 534.71L453.19 534.69L453.21 534.68L453.23 534.67L453.25 534.65L453.27 534.64L453.3 534.63L453.32 534.62L453.34 534.61L453.36 534.6L453.39 534.59L453.41 534.58L453.44 534.58L453.46 534.57L453.49 534.56L453.53 534.55L453.56 534.54L453.6 534.53L453.63 534.52L453.67 534.51L453.71 534.51L453.74 534.5L453.78 534.49L453.81 534.48L453.85 534.48L453.88 534.47L453.92 534.47L453.96 534.46L453.99 534.46L454.03 534.45L454.06 534.45L454.1 534.45L454.14 534.44L454.17 534.44L454.21 534.44L454.27 534.43L454.34 534.43L454.41 534.42L454.48 534.42L454.55 534.42L454.62 534.42L454.69 534.41L454.75 534.41L454.82 534.41L454.88 534.41L454.94 534.41L455 534.41L455.06 534.41L455.11 534.4L455.16 534.4L455.25 534.4L455.29 534.4L455.32 534.4L455.34 534.4L455.36 534.4L455.47 534.4L455.57 534.4ZM450.01 554.14L460.54 554.14L455.25 538.67L455.22 538.67L450.01 554.14Z" id="b6OcH6x3mw"></path><path d="M536.64 564.58C536.62 564.77 536.57 564.96 536.49 565.14C536.44 565.27 536.35 565.38 536.23 565.47C536.13 565.54 536 565.58 535.87 565.58C534.53 565.58 523.82 565.58 522.48 565.58C522.11 565.57 521.75 565.44 521.46 565.21C521.14 564.96 520.98 564.52 520.98 563.9C520.98 546.66 520.98 537.08 520.98 535.17C520.98 535.05 521.01 534.93 521.08 534.83C521.16 534.72 521.27 534.64 521.41 534.6C521.61 534.53 521.82 534.49 522.04 534.46C522.68 534.38 523.33 534.38 523.97 534.46C524.18 534.49 524.38 534.54 524.59 534.6C524.72 534.64 524.83 534.72 524.91 534.83C524.98 534.93 525.01 535.05 525.01 535.17C525.01 536.95 525.01 545.9 525.01 562.01C531.53 562.01 535.15 562.01 535.87 562.01C536 562 536.13 562.04 536.23 562.12C536.34 562.2 536.43 562.3 536.49 562.43C536.57 562.6 536.62 562.78 536.64 562.97C536.68 563.24 536.69 563.51 536.69 563.78C536.69 564.05 536.68 564.32 536.64 564.58Z" id="mxvMXJR8v"></path><path d="M362.21 105.86L362.21 105.86C347.42 91.07 339.2 82.85 337.56 81.2C327.94 71.58 312.19 71.58 302.57 81.2C300.92 82.85 292.71 91.07 277.91 105.86L277.91 105.86L260.42 123.36L379.71 123.36L362.21 105.86Z" id="bQ6wRmS7S"></path><path d="M439.34 302.37L320.04 302.37L379.69 242.72L379.69 242.72L439.34 302.37Z" id="arAYQVlX"></path><path d="M337.54 319.86L337.54 319.86C352.33 334.65 360.55 342.87 362.2 344.51C371.82 354.14 387.56 354.14 397.19 344.51C398.83 342.87 407.05 334.65 421.84 319.86L421.84 319.86L439.34 302.36L320.04 302.36L337.54 319.86Z" id="bVqtsIqkE"></path><path d="M439.34 183.07L439.34 302.37L498.98 242.72L498.98 242.72L439.34 183.07Z" id="e47rXZAXgG"></path><path d="M439.34 302.37L439.34 183.07L379.69 242.72" id="a1dZ3XWSWk"></path><path d="M558.63 183.07L439.34 183.07L498.98 123.43L498.98 123.43L558.63 183.07Z" id="c1FSKU0gnK"></path><path d="M439.34 183.07L558.63 183.07L498.98 242.72" id="kZ0dqmNMB"></path><path d="M439.34 183.07L439.34 302.37L498.98 242.72L498.98 242.72L439.34 183.07Z" id="e1sWiDs4V2"></path><path d="M439.34 302.37L439.34 183.07L379.69 242.72" id="bZq3RKX4T"></path><path d="M558.63 183.07L439.34 183.07L498.98 123.43L498.98 123.43L558.63 183.07Z" id="g4835NabK"></path><path d="M439.34 183.07L558.63 183.07L498.98 242.72" id="e1sCsHzvrz"></path><path d="M498.98 123.41L499.02 123.45L558.63 183.06C558.63 117.63 558.63 81.28 558.63 74.01C552.51 74 546.61 76.25 542.05 80.34C536.31 86.08 521.95 100.44 498.98 123.41Z" id="d1oOzAVhJI"></path><path d="M575.25 80.39C570.69 76.27 564.76 74 558.62 74.01C558.62 81.28 558.62 117.63 558.62 183.06L618.23 123.45L618.27 123.41C595.32 100.47 580.98 86.13 575.25 80.39Z" id="aorUx9O5a"></path><path d="M283.05 220C283.05 220 283.05 220 283.05 220C252.51 250.55 235.54 267.51 232.15 270.91C232.15 270.91 232.15 270.91 232.15 270.91C196.5 235.26 176.7 215.46 172.73 211.5C172.73 211.5 172.73 211.5 172.73 211.5C203.28 180.95 220.25 163.99 223.64 160.59C223.64 160.59 223.64 160.59 223.64 160.59C259.29 196.24 279.09 216.04 283.05 220Z" id="b2BUCcHvlG"></path><path d="M320.06 183L200.77 183L260.42 242.65L260.42 242.65L320.06 183Z" id="gLBqufgUF"></path><path d="M200.77 183L320.06 183L260.42 123.35" id="d37WcMLd9"></path><path d="M320.06 183L200.77 183L260.42 242.65L260.42 242.65L320.06 183Z" id="f4Sqk47j4l"></path><path d="M200.77 183L320.06 183L260.42 123.35" id="a52hikkGS4"></path><path d="M260.42 123.35L379.71 123.35L320.06 183" id="aQnge1r1y"></path><path d="M439.36 183L320.06 183L379.71 242.65L379.71 242.65L439.36 183Z" id="bcQYqy7iy"></path><path d="M320.06 183L439.36 183L379.71 123.35" id="b1prN6gmRd"></path><path d="M218.24 319.86L218.24 319.86C233.04 334.65 241.26 342.87 242.9 344.51C252.52 354.14 268.27 354.14 277.89 344.51C279.53 342.87 287.75 334.65 302.55 319.86L302.55 319.86L320.04 302.36L200.75 302.36L218.24 319.86Z" id="f91GMAxqV"></path><path d="M200.75 302.37L320.04 302.37L260.39 242.72L260.39 242.72L200.75 302.37Z" id="cdxN1aEhq"></path><path d="M200.75 302.37L200.75 183.07L141.1 242.72L141.1 242.72L200.75 302.37Z" id="b6QeoLOqrA"></path><path d="M200.75 302.37L260.39 242.72L200.75 183.07L200.75 183.07L200.75 302.37Z" id="aqClN8Xz0"></path><path d="M141.07 123.46L81.46 183.07L200.75 183.07L141.14 123.46L141.14 123.46L141.07 123.46Z" id="d31wqEyQAt"></path><path d="M141.1 242.72L200.75 183.07L81.46 183.07L81.46 183.07L141.1 242.72Z" id="g2FhFEpk33"></path><path d="M64.88 80.36C64.56 80.65 64.25 80.95 63.94 81.25L39.25 105.94L39.25 105.94L21.73 123.46L21.85 123.46L21.81 123.42C44.78 100.45 59.14 86.1 64.88 80.36Z" id="c3XnRTyjBz"></path><path d="M141.18 123.46L123.66 105.94L123.66 105.94C108.85 91.13 100.62 82.9 98.97 81.25C98.68 80.96 98.39 80.68 98.08 80.4L141.1 123.42L141.18 123.46Z" id="b1RM912XCt"></path><path d="M141.14 123.46L141.1 123.43L141.07 123.46L141.07 123.46L141.14 123.46Z" id="g1vbUXroRx"></path><path d="M21.81 123.43L21.85 123.46L81.46 183.07C81.46 117.65 81.46 81.3 81.46 74.03C75.34 74.01 69.44 76.27 64.88 80.36C59.14 86.1 44.78 100.46 21.81 123.43Z" id="c11ST27Vf0"></path><path d="M98.08 80.41C93.53 76.29 87.6 74.01 81.46 74.03C81.46 81.3 81.46 117.65 81.46 183.07L141.07 123.46L141.1 123.42C118.16 100.48 103.82 86.14 98.08 80.41Z" id="d13lsPeVPe"></path></defs><g><g><g><use xlink:href="#b2tu6IUgtc" opacity="1" fill="#142388" fill-opacity="1"></use><g><use xlink:href="#b2tu6IUgtc" opacity="1" fill-opacity="0" stroke="#000000" stroke-width="1" stroke-opacity="0"></use></g></g><g><use xlink:href="#a20iTQAMeM" opacity="1" fill="#ffffff" fill-opacity="1"></use><g><use xlink:href="#a20iTQAMeM" opacity="1" fill-opacity="0" stroke="#000000" stroke-width="1" stroke-opacity="0"></use></g></g><g><use xlink:href="#afwgG7V1" opacity="1" fill="#ffffff" fill-opacity="1"></use><g><use xlink:href="#afwgG7V1" opacity="1" fill-opacity="0" stroke="#000000" stroke-width="1" stroke-opacity="0"></use></g></g><g><use xlink:href="#agnblwtk0" opacity="1" fill="#ffffff" fill-opacity="1"></use><g><use xlink:href="#agnblwtk0" opacity="1" fill-opacity="0" stroke="#000000" stroke-width="1" stroke-opacity="0"></use></g></g><g><use xlink:href="#cCmIIqVqe" opacity="1" fill="#ffffff" fill-opacity="1"></use><g><use xlink:href="#cCmIIqVqe" opacity="1" fill-opacity="0" stroke="#000000" stroke-width="1" stroke-opacity="0"></use></g></g><g><use xlink:href="#a9GxsWIu" opacity="1" fill="#ffffff" fill-opacity="1"></use><g><use xlink:href="#a9GxsWIu" opacity="1" fill-opacity="0" stroke="#000000" stroke-width="1" stroke-opacity="0"></use></g></g><g><use xlink:href="#b5s0wC74Z8" opacity="1" fill="#ffffff" fill-opacity="1"></use><g><use xlink:href="#b5s0wC74Z8" opacity="1" fill-opacity="0" stroke="#000000" stroke-width="1" stroke-opacity="0"></use></g></g><g><use xlink:href="#dR5FhRsFe" opacity="1" fill="#ffffff" fill-opacity="1"></use><g><use xlink:href="#dR5FhRsFe" opacity="1" fill-opacity="0" stroke="#000000" stroke-width="1" stroke-opacity="0"></use></g></g><g><use xlink:href="#a3oYU8dR6f" opacity="1" fill="#ffffff" fill-opacity="1"></use><g><use xlink:href="#a3oYU8dR6f" opacity="1" fill-opacity="0" stroke="#000000" stroke-width="1" stroke-opacity="0"></use></g></g><g><use xlink:href="#c28oESiVDx" opacity="1" fill="#ffffff" fill-opacity="1"></use><g><use xlink:href="#c28oESiVDx" opacity="1" fill-opacity="0" stroke="#000000" stroke-width="1" stroke-opacity="0"></use></g></g><g><use xlink:href="#b57u3nVYc5" opacity="1" fill="#ffffff" fill-opacity="1"></use><g><use xlink:href="#b57u3nVYc5" opacity="1" fill-opacity="0" stroke="#000000" stroke-width="1" stroke-opacity="0"></use></g></g><g><use xlink:href="#b6OcH6x3mw" opacity="1" fill="#ffffff" fill-opacity="1"></use><g><use xlink:href="#b6OcH6x3mw" opacity="1" fill-opacity="0" stroke="#000000" stroke-width="1" stroke-opacity="0"></use></g></g><g><use xlink:href="#mxvMXJR8v" opacity="1" fill="#ffffff" fill-opacity="1"></use><g><use xlink:href="#mxvMXJR8v" opacity="1" fill-opacity="0" stroke="#000000" stroke-width="1" stroke-opacity="0"></use></g></g><g><use xlink:href="#bQ6wRmS7S" opacity="1" fill="#d2018d" fill-opacity="1"></use><g><use xlink:href="#bQ6wRmS7S" opacity="1" fill-opacity="0" stroke="#000000" stroke-width="1" stroke-opacity="0"></use></g></g><g><use xlink:href="#arAYQVlX" opacity="1" fill="#e69623" fill-opacity="1"></use><g><use xlink:href="#arAYQVlX" opacity="1" fill-opacity="0" stroke="#000000" stroke-width="1" stroke-opacity="0"></use></g></g><g><use xlink:href="#bVqtsIqkE" opacity="1" fill="#f1f64f" fill-opacity="1"></use><g><use xlink:href="#bVqtsIqkE" opacity="1" fill-opacity="0" stroke="#000000" stroke-width="1" stroke-opacity="0"></use></g></g><g><use xlink:href="#e47rXZAXgG" opacity="1" fill="#4054c4" fill-opacity="1"></use><g><use xlink:href="#e47rXZAXgG" opacity="1" fill-opacity="0" stroke="#000000" stroke-width="1" stroke-opacity="0"></use></g></g><g><use xlink:href="#a1dZ3XWSWk" opacity="1" fill="#142388" fill-opacity="1"></use><g><use xlink:href="#a1dZ3XWSWk" opacity="1" fill-opacity="0" stroke="#000000" stroke-width="1" stroke-opacity="0"></use></g></g><g><use xlink:href="#c1FSKU0gnK" opacity="1" fill="#4054c4" fill-opacity="1"></use><g><use xlink:href="#c1FSKU0gnK" opacity="1" fill-opacity="0" stroke="#000000" stroke-width="1" stroke-opacity="0"></use></g></g><g><use xlink:href="#kZ0dqmNMB" opacity="1" fill="#142388" fill-opacity="1"></use><g><use xlink:href="#kZ0dqmNMB" opacity="1" fill-opacity="0" stroke="#000000" stroke-width="1" stroke-opacity="0"></use></g></g><g><use xlink:href="#e1sWiDs4V2" opacity="1" fill="#f1cb30" fill-opacity="1"></use><g><use xlink:href="#e1sWiDs4V2" opacity="1" fill-opacity="0" stroke="#000000" stroke-width="1" stroke-opacity="0"></use></g></g><g><use xlink:href="#bZq3RKX4T" opacity="1" fill="#f7ff40" fill-opacity="1"></use><g><use xlink:href="#bZq3RKX4T" opacity="1" fill-opacity="0" stroke="#000000" stroke-width="1" stroke-opacity="0"></use></g></g><g><use xlink:href="#g4835NabK" opacity="1" fill="#f1f64f" fill-opacity="1"></use><g><use xlink:href="#g4835NabK" opacity="1" fill-opacity="0" stroke="#000000" stroke-width="1" stroke-opacity="0"></use></g></g><g><use xlink:href="#e1sCsHzvrz" opacity="1" fill="#e69623" fill-opacity="1"></use><g><use xlink:href="#e1sCsHzvrz" opacity="1" fill-opacity="0" stroke="#000000" stroke-width="1" stroke-opacity="0"></use></g></g><g><use xlink:href="#d1oOzAVhJI" opacity="1" fill="#f1cb30" fill-opacity="1"></use><g><use xlink:href="#d1oOzAVhJI" opacity="1" fill-opacity="0" stroke="#000000" stroke-width="1" stroke-opacity="0"></use></g></g><g><use xlink:href="#aorUx9O5a" opacity="1" fill="#f7ff40" fill-opacity="1"></use><g><use xlink:href="#aorUx9O5a" opacity="1" fill-opacity="0" stroke="#000000" stroke-width="1" stroke-opacity="0"></use></g></g><g><use xlink:href="#b2BUCcHvlG" opacity="1" fill="#a20066" fill-opacity="1"></use><g><use xlink:href="#b2BUCcHvlG" opacity="1" fill-opacity="0" stroke="#000000" stroke-width="1" stroke-opacity="0"></use></g></g><g><use xlink:href="#gLBqufgUF" opacity="1" fill="#4054c4" fill-opacity="1"></use><g><use xlink:href="#gLBqufgUF" opacity="1" fill-opacity="0" stroke="#000000" stroke-width="1" stroke-opacity="0"></use></g></g><g><use xlink:href="#d37WcMLd9" opacity="1" fill="#142388" fill-opacity="1"></use><g><use xlink:href="#d37WcMLd9" opacity="1" fill-opacity="0" stroke="#000000" stroke-width="1" stroke-opacity="0"></use></g></g><g><use xlink:href="#f4Sqk47j4l" opacity="1" fill="#a20066" fill-opacity="1"></use><g><use xlink:href="#f4Sqk47j4l" opacity="1" fill-opacity="0" stroke="#000000" stroke-width="1" stroke-opacity="0"></use></g></g><g><use xlink:href="#a52hikkGS4" opacity="1" fill="#af3682" fill-opacity="1"></use><g><use xlink:href="#a52hikkGS4" opacity="1" fill-opacity="0" stroke="#000000" stroke-width="1" stroke-opacity="0"></use></g></g><g><use xlink:href="#aQnge1r1y" opacity="1" fill="#d197bf" fill-opacity="1"></use><g><use xlink:href="#aQnge1r1y" opacity="1" fill-opacity="0" stroke="#000000" stroke-width="1" stroke-opacity="0"></use></g></g><g><use xlink:href="#bcQYqy7iy" opacity="1" fill="#af3682" fill-opacity="1"></use><g><use xlink:href="#bcQYqy7iy" opacity="1" fill-opacity="0" stroke="#000000" stroke-width="1" stroke-opacity="0"></use></g></g><g><use xlink:href="#b1prN6gmRd" opacity="1" fill="#650046" fill-opacity="1"></use><g><use xlink:href="#b1prN6gmRd" opacity="1" fill-opacity="0" stroke="#000000" stroke-width="1" stroke-opacity="0"></use></g></g><g><use xlink:href="#f91GMAxqV" opacity="1" fill="#445df8" fill-opacity="1"></use><g><use xlink:href="#f91GMAxqV" opacity="1" fill-opacity="0" stroke="#000000" stroke-width="1" stroke-opacity="0"></use></g></g><g><use xlink:href="#cdxN1aEhq" opacity="1" fill="#142388" fill-opacity="1"></use><g><use xlink:href="#cdxN1aEhq" opacity="1" fill-opacity="0" stroke="#000000" stroke-width="1" stroke-opacity="0"></use></g></g><g><use xlink:href="#b6QeoLOqrA" opacity="1" fill="#192cb7" fill-opacity="1"></use><g><use xlink:href="#b6QeoLOqrA" opacity="1" fill-opacity="0" stroke="#000000" stroke-width="1" stroke-opacity="0"></use></g></g><g><use xlink:href="#aqClN8Xz0" opacity="1" fill="#2038f6" fill-opacity="1"></use><g><use xlink:href="#aqClN8Xz0" opacity="1" fill-opacity="0" stroke="#000000" stroke-width="1" stroke-opacity="0"></use></g></g><g><use xlink:href="#d31wqEyQAt" opacity="1" fill="#192cb7" fill-opacity="1"></use><g><use xlink:href="#d31wqEyQAt" opacity="1" fill-opacity="0" stroke="#000000" stroke-width="1" stroke-opacity="0"></use></g></g><g><use xlink:href="#g2FhFEpk33" opacity="1" fill="#4054c4" fill-opacity="1"></use><g><use xlink:href="#g2FhFEpk33" opacity="1" fill-opacity="0" stroke="#000000" stroke-width="1" stroke-opacity="0"></use></g></g><g><use xlink:href="#c3XnRTyjBz" opacity="1" fill="#af3682" fill-opacity="1"></use><g><use xlink:href="#c3XnRTyjBz" opacity="1" fill-opacity="0" stroke="#000000" stroke-width="1" stroke-opacity="0"></use></g></g><g><use xlink:href="#b1RM912XCt" opacity="1" fill="#af3682" fill-opacity="1"></use><g><use xlink:href="#b1RM912XCt" opacity="1" fill-opacity="0" stroke="#000000" stroke-width="1" stroke-opacity="0"></use></g></g><g><use xlink:href="#g1vbUXroRx" opacity="1" fill="#af3682" fill-opacity="1"></use><g><use xlink:href="#g1vbUXroRx" opacity="1" fill-opacity="0" stroke="#000000" stroke-width="1" stroke-opacity="0"></use></g></g><g><use xlink:href="#c11ST27Vf0" opacity="1" fill="#142388" fill-opacity="1"></use><g><use xlink:href="#c11ST27Vf0" opacity="1" fill-opacity="0" stroke="#000000" stroke-width="1" stroke-opacity="0"></use></g></g><g><use xlink:href="#d13lsPeVPe" opacity="1" fill="#445df8" fill-opacity="1"></use><g><use xlink:href="#d13lsPeVPe" opacity="1" fill-opacity="0" stroke="#000000" stroke-width="1" stroke-opacity="0"></use></g></g></g></g></svg>